G04 Layer_Color=32896*
%FSLAX44Y44*%
%MOMM*%
G71*
G01*
G75*
%ADD39C,0.0254*%
%ADD40C,0.1000*%
D39*
X181310Y212516D02*
X183088D01*
X197058D02*
X198836D01*
X234650D02*
X236428D01*
X153370Y212770D02*
X155148D01*
X158450D02*
X160482D01*
X161244D02*
X163530D01*
X167340D02*
X169626D01*
X170388D02*
X172420D01*
X175214D02*
X177500D01*
X180548D02*
X183850D01*
X186136D02*
X188168D01*
X192232D02*
X194264D01*
X196296D02*
X199598D01*
X205440D02*
X211790D01*
X215346D02*
X220172D01*
X226776D02*
X228808D01*
X233888D02*
X237190D01*
X240746D02*
X242778D01*
X153370Y213024D02*
X155402D01*
X158450D02*
X160482D01*
X161498D02*
X163530D01*
X167340D02*
X169372D01*
X170388D02*
X172420D01*
X175214D02*
X177246D01*
X180040D02*
X184104D01*
X186136D02*
X188422D01*
X191978D02*
X194264D01*
X195788D02*
X199852D01*
X205440D02*
X211790D01*
X214838D02*
X220172D01*
X226776D02*
X228808D01*
X233380D02*
X237698D01*
X240746D02*
X242778D01*
X153370Y213278D02*
X155402D01*
X158450D02*
X160482D01*
X161498D02*
X163530D01*
X167340D02*
X169372D01*
X170388D02*
X172420D01*
X175214D02*
X177246D01*
X179786D02*
X184612D01*
X186136D02*
X188422D01*
X191978D02*
X194264D01*
X195534D02*
X200360D01*
X205440D02*
X211790D01*
X214584D02*
X220172D01*
X226776D02*
X228808D01*
X233126D02*
X237952D01*
X240746D02*
X242778D01*
X153370Y213532D02*
X155656D01*
X158450D02*
X160482D01*
X161498D02*
X163784D01*
X167086D02*
X169372D01*
X170388D02*
X172420D01*
X175214D02*
X177246D01*
X179532D02*
X184866D01*
X186390D02*
X188422D01*
X191978D02*
X194010D01*
X195280D02*
X200614D01*
X205440D02*
X211790D01*
X214330D02*
X220172D01*
X226776D02*
X228808D01*
X232872D02*
X238206D01*
X240746D02*
X242778D01*
X153370Y213786D02*
X155910D01*
X158450D02*
X160482D01*
X161752D02*
X163784D01*
X167086D02*
X169118D01*
X170388D02*
X172420D01*
X175214D02*
X177246D01*
X179278D02*
X185120D01*
X186390D02*
X188676D01*
X191724D02*
X194010D01*
X195026D02*
X200868D01*
X205440D02*
X211790D01*
X214076D02*
X220172D01*
X226776D02*
X228808D01*
X232618D02*
X238460D01*
X240746D02*
X242778D01*
X153370Y214040D02*
X155910D01*
X158450D02*
X160482D01*
X161752D02*
X163784D01*
X167086D02*
X169118D01*
X170388D02*
X172420D01*
X175214D02*
X177246D01*
X179024D02*
X185120D01*
X186644D02*
X188676D01*
X191724D02*
X193756D01*
X194772D02*
X200868D01*
X205440D02*
X211790D01*
X213822D02*
X220172D01*
X226776D02*
X228808D01*
X232618D02*
X238714D01*
X240746D02*
X242778D01*
X153370Y214294D02*
X156164D01*
X158450D02*
X160482D01*
X162006D02*
X168864D01*
X170388D02*
X172420D01*
X175214D02*
X177246D01*
X179024D02*
X181564D01*
X182580D02*
X185374D01*
X186644D02*
X193756D01*
X194772D02*
X197312D01*
X198328D02*
X201122D01*
X205440D02*
X211790D01*
X213822D02*
X220172D01*
X226776D02*
X228808D01*
X232364D02*
X234904D01*
X236174D02*
X238714D01*
X240746D02*
X242778D01*
X153370Y214548D02*
X156418D01*
X158450D02*
X160482D01*
X162006D02*
X168864D01*
X170388D02*
X172420D01*
X175214D02*
X177246D01*
X179024D02*
X181310D01*
X183088D02*
X185374D01*
X186644D02*
X193756D01*
X194518D02*
X197058D01*
X198836D02*
X201122D01*
X209758D02*
X211790D01*
X213568D02*
X216108D01*
X218140D02*
X220172D01*
X226776D02*
X228808D01*
X232364D02*
X234650D01*
X236682D02*
X238968D01*
X240746D02*
X242778D01*
X153370Y214802D02*
X156418D01*
X158450D02*
X160482D01*
X162006D02*
X168864D01*
X170388D02*
X172420D01*
X175214D02*
X177246D01*
X178770D02*
X181056D01*
X183342D02*
X185628D01*
X186898D02*
X193502D01*
X194518D02*
X196804D01*
X199090D02*
X201376D01*
X209758D02*
X211790D01*
X213568D02*
X215854D01*
X218140D02*
X220172D01*
X226776D02*
X228808D01*
X232110D02*
X234396D01*
X236682D02*
X238968D01*
X240746D02*
X242778D01*
X153370Y215056D02*
X156672D01*
X158450D02*
X160482D01*
X162260D02*
X168610D01*
X170388D02*
X172420D01*
X175214D02*
X177246D01*
X178770D02*
X180802D01*
X183342D02*
X185628D01*
X186898D02*
X193502D01*
X194518D02*
X196550D01*
X199090D02*
X201376D01*
X209758D02*
X211790D01*
X213568D02*
X215600D01*
X218140D02*
X220172D01*
X226776D02*
X228808D01*
X232110D02*
X234142D01*
X236936D02*
X238968D01*
X240746D02*
X242778D01*
X153370Y215310D02*
X156672D01*
X158450D02*
X160482D01*
X162260D02*
X168610D01*
X170388D02*
X172420D01*
X175214D02*
X177246D01*
X178770D02*
X180802D01*
X183596D02*
X185628D01*
X186898D02*
X193502D01*
X194518D02*
X196550D01*
X199090D02*
X201376D01*
X209758D02*
X211790D01*
X213314D02*
X215600D01*
X218140D02*
X220172D01*
X226776D02*
X228808D01*
X232110D02*
X234142D01*
X236936D02*
X238968D01*
X240746D02*
X242778D01*
X98630Y219166D02*
X107012D01*
X114886D02*
X118188D01*
X126316D02*
X129364D01*
X131650D02*
X138762D01*
X153370Y215564D02*
X156926D01*
X158450D02*
X160482D01*
X162260D02*
X168610D01*
X170388D02*
X172420D01*
X175214D02*
X177246D01*
X183596D02*
X185628D01*
X187152D02*
X193248D01*
X199344D02*
X201376D01*
X209758D02*
X211790D01*
X213314D02*
X215600D01*
X218140D02*
X220172D01*
X226776D02*
X228808D01*
X232110D02*
X234142D01*
X236936D02*
X238968D01*
X240746D02*
X242778D01*
X85676Y219420D02*
X96090D01*
X98630D02*
X108790D01*
X114886D02*
X118188D01*
X126316D02*
X129364D01*
X131650D02*
X140540D01*
X153370Y215818D02*
X157180D01*
X158450D02*
X160482D01*
X162514D02*
X168356D01*
X170388D02*
X172420D01*
X175214D02*
X177246D01*
X183596D02*
X185628D01*
X187152D02*
X193248D01*
X199344D02*
X201376D01*
X209758D02*
X211790D01*
X213314D02*
X215600D01*
X218140D02*
X220172D01*
X226776D02*
X228808D01*
X232110D02*
X234142D01*
X236936D02*
X238968D01*
X240746D02*
X242778D01*
X84914Y219674D02*
X96090D01*
X98630D02*
X109552D01*
X114886D02*
X118188D01*
X126316D02*
X129364D01*
X131650D02*
X141048D01*
X153370Y216072D02*
X157180D01*
X158450D02*
X160482D01*
X162514D02*
X164546D01*
X166324D02*
X168356D01*
X170388D02*
X172420D01*
X175214D02*
X177246D01*
X183596D02*
X185628D01*
X187152D02*
X189184D01*
X190962D02*
X193248D01*
X199344D02*
X201376D01*
X209758D02*
X211790D01*
X213314D02*
X215600D01*
X218140D02*
X220172D01*
X226776D02*
X228808D01*
X232110D02*
X234142D01*
X236936D02*
X238968D01*
X240746D02*
X242778D01*
X84406Y219928D02*
X96090D01*
X98630D02*
X110060D01*
X114886D02*
X118188D01*
X126316D02*
X129364D01*
X131650D02*
X142064D01*
X153370Y216326D02*
X157434D01*
X158450D02*
X160482D01*
X162514D02*
X164546D01*
X166324D02*
X168356D01*
X170388D02*
X172420D01*
X175214D02*
X177246D01*
X183596D02*
X185628D01*
X187406D02*
X189438D01*
X190962D02*
X192994D01*
X199344D02*
X201376D01*
X209758D02*
X211790D01*
X213314D02*
X215600D01*
X218140D02*
X220172D01*
X226776D02*
X228808D01*
X232110D02*
X234142D01*
X236936D02*
X238968D01*
X240746D02*
X242778D01*
X83898Y220182D02*
X96090D01*
X98630D02*
X110314D01*
X114886D02*
X118188D01*
X126316D02*
X129364D01*
X131650D02*
X142318D01*
X153370Y216580D02*
X157688D01*
X158450D02*
X160482D01*
X162768D02*
X164800D01*
X166070D02*
X168102D01*
X170388D02*
X177246D01*
X183596D02*
X185628D01*
X187406D02*
X189438D01*
X190962D02*
X192994D01*
X199344D02*
X201376D01*
X205948D02*
X211790D01*
X213314D02*
X215346D01*
X218140D02*
X220172D01*
X226776D02*
X228808D01*
X232110D02*
X234142D01*
X236936D02*
X238968D01*
X240746D02*
X242778D01*
X83644Y220436D02*
X96090D01*
X98630D02*
X110822D01*
X114886D02*
X118188D01*
X126316D02*
X129364D01*
X131650D02*
X142572D01*
X153370Y216834D02*
X155148D01*
X155402D02*
X157688D01*
X158450D02*
X160482D01*
X162768D02*
X164800D01*
X166070D02*
X168102D01*
X170388D02*
X177246D01*
X183596D02*
X185628D01*
X187660D02*
X189692D01*
X190708D02*
X192740D01*
X199344D02*
X201376D01*
X205948D02*
X211790D01*
X213314D02*
X215346D01*
X218140D02*
X220172D01*
X226776D02*
X228808D01*
X232110D02*
X234142D01*
X236936D02*
X238968D01*
X240746D02*
X242778D01*
X83390Y220690D02*
X96090D01*
X98630D02*
X111076D01*
X114886D02*
X118188D01*
X126316D02*
X129364D01*
X131650D02*
X142826D01*
X153370Y217088D02*
X155148D01*
X155656D02*
X157942D01*
X158450D02*
X160482D01*
X163022D02*
X164800D01*
X166070D02*
X167848D01*
X170388D02*
X177246D01*
X183596D02*
X185628D01*
X187660D02*
X189692D01*
X190708D02*
X192740D01*
X199344D02*
X201376D01*
X205948D02*
X211790D01*
X213314D02*
X215346D01*
X218140D02*
X220172D01*
X226776D02*
X228808D01*
X232110D02*
X234142D01*
X236936D02*
X238968D01*
X240746D02*
X242778D01*
X82882Y220944D02*
X96090D01*
X98630D02*
X111584D01*
X114886D02*
X118188D01*
X126316D02*
X129364D01*
X131650D02*
X143334D01*
X153370Y217342D02*
X155148D01*
X155656D02*
X158196D01*
X158450D02*
X160482D01*
X163022D02*
X165054D01*
X165816D02*
X167848D01*
X170388D02*
X177246D01*
X183596D02*
X185628D01*
X187660D02*
X189692D01*
X190708D02*
X192740D01*
X199344D02*
X201376D01*
X205948D02*
X211790D01*
X213314D02*
X215346D01*
X218140D02*
X220172D01*
X226776D02*
X228808D01*
X232110D02*
X234142D01*
X236936D02*
X238968D01*
X240746D02*
X242778D01*
X82628Y221198D02*
X96090D01*
X98630D02*
X111584D01*
X114886D02*
X118188D01*
X126316D02*
X129364D01*
X131650D02*
X143588D01*
X153370Y217596D02*
X155148D01*
X155910D02*
X158196D01*
X158450D02*
X160482D01*
X163022D02*
X165054D01*
X165816D02*
X167848D01*
X170388D02*
X177246D01*
X183596D02*
X185628D01*
X187914D02*
X189946D01*
X190454D02*
X192486D01*
X199344D02*
X201376D01*
X205948D02*
X211790D01*
X213314D02*
X215346D01*
X218140D02*
X220172D01*
X226776D02*
X228808D01*
X232110D02*
X234142D01*
X236936D02*
X238968D01*
X240746D02*
X242778D01*
X82628Y221452D02*
X96090D01*
X98376D02*
X111838D01*
X114886D02*
X118188D01*
X126316D02*
X129364D01*
X131650D02*
X143842D01*
X153370Y217850D02*
X155148D01*
X156164D02*
X160482D01*
X163276D02*
X165054D01*
X165816D02*
X167594D01*
X170388D02*
X177246D01*
X183596D02*
X185628D01*
X187914D02*
X189946D01*
X190454D02*
X192486D01*
X199344D02*
X201376D01*
X205948D02*
X211790D01*
X213314D02*
X215346D01*
X218140D02*
X220172D01*
X226776D02*
X228808D01*
X232110D02*
X234142D01*
X236936D02*
X238968D01*
X240746D02*
X242778D01*
X82628Y221706D02*
X87200D01*
X107266D02*
X112092D01*
X114886D02*
X118188D01*
X126316D02*
X129364D01*
X138762D02*
X144096D01*
X153370Y218104D02*
X155148D01*
X156164D02*
X160482D01*
X163276D02*
X165308D01*
X165562D02*
X167594D01*
X170388D02*
X177246D01*
X183596D02*
X185628D01*
X187914D02*
X189946D01*
X190454D02*
X192486D01*
X199344D02*
X201376D01*
X206202D02*
X211790D01*
X213314D02*
X215600D01*
X218140D02*
X220172D01*
X226776D02*
X228808D01*
X232110D02*
X234142D01*
X236936D02*
X238968D01*
X240746D02*
X242778D01*
X82628Y221960D02*
X86946D01*
X107520D02*
X112092D01*
X114886D02*
X118188D01*
X126316D02*
X129364D01*
X139016D02*
X144096D01*
X153370Y218358D02*
X155148D01*
X156418D02*
X160482D01*
X163276D02*
X165308D01*
X165562D02*
X167594D01*
X170388D02*
X172420D01*
X175214D02*
X177246D01*
X183596D02*
X185628D01*
X188168D02*
X189946D01*
X190200D02*
X192232D01*
X199344D02*
X201376D01*
X209758D02*
X211790D01*
X213314D02*
X215600D01*
X218140D02*
X220172D01*
X226776D02*
X228808D01*
X232110D02*
X234142D01*
X236936D02*
X238968D01*
X240746D02*
X242778D01*
X82628Y222214D02*
X86438D01*
X108028D02*
X112346D01*
X114886D02*
X118188D01*
X126316D02*
X129364D01*
X139778D02*
X144096D01*
X153370Y218612D02*
X155148D01*
X156672D02*
X160482D01*
X163530D02*
X165308D01*
X165562D02*
X167340D01*
X170388D02*
X172420D01*
X175214D02*
X177246D01*
X183596D02*
X185628D01*
X188168D02*
X192232D01*
X199344D02*
X201376D01*
X209758D02*
X211790D01*
X213314D02*
X215600D01*
X218140D02*
X220172D01*
X226776D02*
X228808D01*
X232110D02*
X234142D01*
X236936D02*
X238968D01*
X240746D02*
X242778D01*
X82628Y222468D02*
X86438D01*
X108282D02*
X112600D01*
X114886D02*
X118188D01*
X126316D02*
X129364D01*
X140032D02*
X144350D01*
X153370Y218866D02*
X155148D01*
X156672D02*
X160482D01*
X163530D02*
X167340D01*
X170388D02*
X172420D01*
X175214D02*
X177246D01*
X178770D02*
X180802D01*
X183596D02*
X185628D01*
X188168D02*
X192232D01*
X194264D02*
X196550D01*
X199344D02*
X201376D01*
X209758D02*
X211790D01*
X213314D02*
X215600D01*
X218140D02*
X220172D01*
X226776D02*
X228808D01*
X232110D02*
X234142D01*
X236936D02*
X238968D01*
X240746D02*
X242778D01*
X82628Y222722D02*
X86438D01*
X108790D02*
X112600D01*
X114886D02*
X118188D01*
X126316D02*
X129364D01*
X140286D02*
X144604D01*
X153370Y219120D02*
X155148D01*
X156926D02*
X160482D01*
X163530D02*
X167340D01*
X170388D02*
X172420D01*
X175214D02*
X177246D01*
X178770D02*
X180802D01*
X183342D02*
X185628D01*
X188422D02*
X191978D01*
X194518D02*
X196550D01*
X199090D02*
X201376D01*
X209758D02*
X211790D01*
X213314D02*
X215600D01*
X218140D02*
X220172D01*
X226776D02*
X228808D01*
X232110D02*
X234142D01*
X236936D02*
X238968D01*
X240746D02*
X242778D01*
X82628Y222976D02*
X86438D01*
X109044D02*
X112600D01*
X114886D02*
X118188D01*
X126316D02*
X129364D01*
X140540D02*
X144858D01*
X153370Y219374D02*
X155148D01*
X157180D02*
X160482D01*
X163784D02*
X167086D01*
X170388D02*
X172420D01*
X175214D02*
X177246D01*
X178770D02*
X181056D01*
X183342D02*
X185628D01*
X188422D02*
X191978D01*
X194518D02*
X196804D01*
X199090D02*
X201376D01*
X209758D02*
X211790D01*
X213568D02*
X215600D01*
X218140D02*
X220172D01*
X226776D02*
X228808D01*
X232110D02*
X234142D01*
X236936D02*
X238968D01*
X240746D02*
X242778D01*
X82628Y223230D02*
X86438D01*
X109044D02*
X112854D01*
X114886D02*
X118188D01*
X126316D02*
X129364D01*
X140794D02*
X144858D01*
X153370Y219628D02*
X155148D01*
X157180D02*
X160482D01*
X163784D02*
X167086D01*
X170388D02*
X172420D01*
X175214D02*
X177246D01*
X178770D02*
X181056D01*
X183088D02*
X185374D01*
X188676D02*
X191978D01*
X194518D02*
X196804D01*
X198836D02*
X201122D01*
X209758D02*
X211790D01*
X213568D02*
X215854D01*
X218140D02*
X220172D01*
X226776D02*
X228808D01*
X232110D02*
X234142D01*
X236936D02*
X238968D01*
X240746D02*
X242778D01*
X82628Y223484D02*
X86438D01*
X109298D02*
X112854D01*
X114886D02*
X118188D01*
X126316D02*
X129364D01*
X141048D02*
X144858D01*
X153370Y219882D02*
X155148D01*
X157434D02*
X160482D01*
X164038D02*
X166832D01*
X170388D02*
X172420D01*
X175214D02*
X177246D01*
X179024D02*
X181310D01*
X182834D02*
X185374D01*
X188676D02*
X191724D01*
X194772D02*
X197058D01*
X198582D02*
X201122D01*
X209758D02*
X211790D01*
X213568D02*
X216108D01*
X218140D02*
X220172D01*
X226776D02*
X228808D01*
X232110D02*
X234142D01*
X236936D02*
X238968D01*
X240746D02*
X242778D01*
X82628Y223738D02*
X86438D01*
X109552D02*
X113108D01*
X114886D02*
X118188D01*
X126316D02*
X129364D01*
X141048D02*
X144858D01*
X153370Y220136D02*
X155148D01*
X157434D02*
X160482D01*
X164038D02*
X166832D01*
X170388D02*
X172420D01*
X175214D02*
X177246D01*
X179024D02*
X185374D01*
X188676D02*
X191724D01*
X194772D02*
X201122D01*
X205440D02*
X211790D01*
X213822D02*
X220172D01*
X224236D02*
X231094D01*
X232110D02*
X234142D01*
X236936D02*
X238968D01*
X240746D02*
X242778D01*
X82628Y223992D02*
X86946D01*
X109552D02*
X113108D01*
X114886D02*
X118188D01*
X126316D02*
X129364D01*
X141048D02*
X144858D01*
X153370Y220390D02*
X155148D01*
X157688D02*
X160482D01*
X164038D02*
X166832D01*
X170388D02*
X172420D01*
X175214D02*
X177246D01*
X179278D02*
X185120D01*
X188930D02*
X191470D01*
X195026D02*
X200868D01*
X205440D02*
X211790D01*
X213822D02*
X220172D01*
X224236D02*
X231094D01*
X232110D02*
X234142D01*
X236936D02*
X238968D01*
X240746D02*
X242778D01*
X82628Y224246D02*
X87200D01*
X109552D02*
X113108D01*
X114886D02*
X118188D01*
X126316D02*
X129364D01*
X141048D02*
X144858D01*
X153370Y220644D02*
X155148D01*
X157942D02*
X160482D01*
X164292D02*
X166578D01*
X170388D02*
X172420D01*
X175214D02*
X177246D01*
X179278D02*
X184866D01*
X188930D02*
X191470D01*
X195026D02*
X200614D01*
X205440D02*
X211790D01*
X214076D02*
X220172D01*
X224236D02*
X231094D01*
X232110D02*
X234142D01*
X236936D02*
X238968D01*
X240746D02*
X242778D01*
X82628Y224500D02*
X91772D01*
X98376D02*
X113108D01*
X114886D02*
X118188D01*
X126316D02*
X129364D01*
X141302D02*
X144858D01*
X153370Y220898D02*
X155148D01*
X157942D02*
X160482D01*
X164292D02*
X166578D01*
X170388D02*
X172420D01*
X175214D02*
X177246D01*
X179532D02*
X184612D01*
X188930D02*
X191470D01*
X195280D02*
X200360D01*
X205440D02*
X211790D01*
X214330D02*
X220172D01*
X224236D02*
X231094D01*
X232110D02*
X234142D01*
X236936D02*
X238968D01*
X240746D02*
X242778D01*
X83136Y224754D02*
X94058D01*
X98376D02*
X113108D01*
X114886D02*
X118188D01*
X126316D02*
X129364D01*
X141302D02*
X144858D01*
X153370Y221152D02*
X155148D01*
X158196D02*
X160482D01*
X164292D02*
X166578D01*
X170388D02*
X172420D01*
X175214D02*
X177246D01*
X179786D02*
X184358D01*
X189184D02*
X191216D01*
X195534D02*
X200106D01*
X205440D02*
X211790D01*
X214584D02*
X220172D01*
X224236D02*
X231094D01*
X232110D02*
X234142D01*
X236936D02*
X238968D01*
X240746D02*
X242778D01*
X83136Y225008D02*
X94312D01*
X98376D02*
X113108D01*
X114886D02*
X118188D01*
X126316D02*
X129364D01*
X141302D02*
X144858D01*
X153370Y221406D02*
X155148D01*
X158450D02*
X160482D01*
X164546D02*
X166324D01*
X170388D02*
X172420D01*
X175214D02*
X177246D01*
X180294D02*
X184104D01*
X189184D02*
X191216D01*
X196042D02*
X199852D01*
X205440D02*
X211790D01*
X214838D02*
X220172D01*
X224236D02*
X231094D01*
X232110D02*
X234142D01*
X236936D02*
X238968D01*
X240746D02*
X242778D01*
X83390Y225262D02*
X95074D01*
X98376D02*
X113108D01*
X114886D02*
X118188D01*
X126316D02*
X129364D01*
X141302D02*
X144858D01*
X153370Y221660D02*
X155148D01*
X158450D02*
X160482D01*
X164546D02*
X166324D01*
X170388D02*
X172420D01*
X175214D02*
X177500D01*
X180802D02*
X183596D01*
X189184D02*
X191216D01*
X196550D02*
X199344D01*
X205440D02*
X211790D01*
X215346D02*
X220172D01*
X224236D02*
X231094D01*
X232110D02*
X234142D01*
X236936D02*
X238968D01*
X240746D02*
X242778D01*
X83644Y225516D02*
X95328D01*
X98376D02*
X113108D01*
X114886D02*
X118188D01*
X126316D02*
X129364D01*
X141302D02*
X144858D01*
X84152Y225770D02*
X95836D01*
X98376D02*
X113108D01*
X114886D02*
X118188D01*
X126316D02*
X129364D01*
X141302D02*
X144858D01*
X84406Y226024D02*
X95836D01*
X98376D02*
X113108D01*
X114886D02*
X118442D01*
X126316D02*
X129364D01*
X141302D02*
X144858D01*
X85422Y226278D02*
X96090D01*
X98376D02*
X113108D01*
X114886D02*
X118442D01*
X126316D02*
X129364D01*
X141302D02*
X144858D01*
X86184Y226532D02*
X96090D01*
X98376D02*
X113108D01*
X114886D02*
X118442D01*
X126316D02*
X129364D01*
X141302D02*
X144858D01*
X91772Y226786D02*
X96090D01*
X98376D02*
X101932D01*
X109552D02*
X113108D01*
X114886D02*
X118442D01*
X126062D02*
X129364D01*
X141048D02*
X144858D01*
X92280Y227040D02*
X96090D01*
X98376D02*
X101932D01*
X109552D02*
X113108D01*
X115140D02*
X118442D01*
X126062D02*
X129364D01*
X141048D02*
X144858D01*
X92534Y227294D02*
X96344D01*
X98376D02*
X101932D01*
X109552D02*
X112854D01*
X115140D02*
X118442D01*
X126062D02*
X129364D01*
X141048D02*
X144858D01*
X92534Y227548D02*
X96344D01*
X98376D02*
X101932D01*
X109552D02*
X112854D01*
X115140D02*
X118442D01*
X125808D02*
X129364D01*
X140794D02*
X144858D01*
X92534Y227802D02*
X96344D01*
X98376D02*
X101932D01*
X109552D02*
X112854D01*
X115140D02*
X118696D01*
X125808D02*
X129364D01*
X140794D02*
X144858D01*
X92534Y228056D02*
X96344D01*
X98630D02*
X101932D01*
X109298D02*
X112600D01*
X115140D02*
X118696D01*
X125554D02*
X129364D01*
X140286D02*
X144604D01*
X92534Y228310D02*
X96344D01*
X98630D02*
X102186D01*
X109298D02*
X112600D01*
X115140D02*
X118696D01*
X125554D02*
X129364D01*
X140286D02*
X144604D01*
X92534Y228564D02*
X96344D01*
X98630D02*
X102440D01*
X109044D02*
X112600D01*
X115394D02*
X119204D01*
X125300D02*
X129364D01*
X140286D02*
X144350D01*
X92280Y228818D02*
X96090D01*
X98884D02*
X102694D01*
X108790D02*
X112092D01*
X115648D02*
X119712D01*
X124792D02*
X128856D01*
X139524D02*
X144096D01*
X91772Y229072D02*
X96090D01*
X99138D02*
X102694D01*
X108536D02*
X112092D01*
X115648D02*
X119966D01*
X124538D02*
X128856D01*
X139016D02*
X144096D01*
X90502Y229326D02*
X96090D01*
X99392D02*
X102948D01*
X108028D02*
X111838D01*
X115902D02*
X120474D01*
X124030D02*
X128856D01*
X137746D02*
X143842D01*
X82882Y229580D02*
X96090D01*
X99392D02*
X103710D01*
X107774D02*
X111838D01*
X115902D02*
X120982D01*
X123268D02*
X128602D01*
X131650D02*
X143588D01*
X82882Y229834D02*
X96090D01*
X99646D02*
X104218D01*
X107266D02*
X111584D01*
X116156D02*
X128348D01*
X131650D02*
X143334D01*
X82882Y230088D02*
X96090D01*
X99900D02*
X105234D01*
X105742D02*
X111584D01*
X116156D02*
X128094D01*
X131650D02*
X143334D01*
X82882Y230342D02*
X95836D01*
X100154D02*
X111330D01*
X116410D02*
X127840D01*
X131650D02*
X142826D01*
X82882Y230596D02*
X95074D01*
X100662D02*
X110568D01*
X116918D02*
X127332D01*
X131650D02*
X142318D01*
X82882Y230850D02*
X94820D01*
X100662D02*
X110314D01*
X117426D02*
X127078D01*
X131650D02*
X142064D01*
X82882Y231104D02*
X94058D01*
X101170D02*
X110060D01*
X117934D02*
X126824D01*
X131650D02*
X141302D01*
X82882Y231358D02*
X93804D01*
X101678D02*
X109552D01*
X118188D02*
X126316D01*
X131650D02*
X140794D01*
X82882Y231612D02*
X92026D01*
X102694D02*
X108790D01*
X118950D02*
X125300D01*
X131650D02*
X139270D01*
X102948Y231866D02*
X108536D01*
X119458D02*
X125046D01*
X150830Y229026D02*
X245572D01*
X150830Y229280D02*
X245572D01*
X150830Y229534D02*
X245572D01*
X150830Y229788D02*
X245572D01*
X111330Y238470D02*
X114886D01*
X109044Y238724D02*
X116918D01*
X108282Y238978D02*
X117680D01*
X107266Y239232D02*
X118696D01*
X106758Y239486D02*
X119458D01*
X105742Y239740D02*
X120220D01*
X200360Y236138D02*
X201884D01*
X105234Y239994D02*
X120474D01*
X191216Y236392D02*
X194518D01*
X199090D02*
X203154D01*
X210520D02*
X217378D01*
X104472Y240248D02*
X121744D01*
X189946Y236646D02*
X195534D01*
X198582D02*
X203916D01*
X209758D02*
X217378D01*
X244556D02*
X245064D01*
X103710Y240502D02*
X122506D01*
X189184Y236900D02*
X195788D01*
X198074D02*
X204424D01*
X209504D02*
X217378D01*
X244048D02*
X245064D01*
X103456Y240756D02*
X122506D01*
X188676Y237154D02*
X195534D01*
X197566D02*
X204678D01*
X208996D02*
X217378D01*
X243540D02*
X245064D01*
X102694Y241010D02*
X123014D01*
X188168Y237408D02*
X195534D01*
X197312D02*
X205186D01*
X208742D02*
X217378D01*
X242778D02*
X245064D01*
X102694Y241264D02*
X123268D01*
X187914Y237662D02*
X195280D01*
X197058D02*
X205440D01*
X208488D02*
X217378D01*
X242270D02*
X245064D01*
X101932Y241518D02*
X123776D01*
X187660Y237916D02*
X195280D01*
X196804D02*
X205694D01*
X208488D02*
X217378D01*
X241762D02*
X245064D01*
X101932Y241772D02*
X124284D01*
X187406Y238170D02*
X195026D01*
X196550D02*
X205948D01*
X208234D02*
X217378D01*
X241000D02*
X245064D01*
X101424Y242026D02*
X124538D01*
X187152Y238424D02*
X195026D01*
X196296D02*
X205948D01*
X208234D02*
X217378D01*
X240492D02*
X245064D01*
X100662Y242280D02*
X125046D01*
X186898Y238678D02*
X194772D01*
X196296D02*
X200106D01*
X202392D02*
X206202D01*
X207980D02*
X217124D01*
X239984D02*
X245064D01*
X100662Y242534D02*
X125300D01*
X186644Y238932D02*
X190962D01*
X196042D02*
X199598D01*
X202900D02*
X206202D01*
X207980D02*
X211028D01*
X239476D02*
X245064D01*
X100408Y242788D02*
X125554D01*
X186390Y239186D02*
X190200D01*
X196042D02*
X199090D01*
X203408D02*
X206456D01*
X207980D02*
X210520D01*
X239476D02*
X245064D01*
X100154Y243042D02*
X125808D01*
X186390Y239440D02*
X189946D01*
X195788D02*
X198836D01*
X203662D02*
X206456D01*
X207726D02*
X210520D01*
X239476D02*
X245064D01*
X99900Y243296D02*
X126316D01*
X186136Y239694D02*
X189692D01*
X195788D02*
X198836D01*
X203662D02*
X206710D01*
X207726D02*
X210520D01*
X239476D02*
X245064D01*
X99646Y243550D02*
X126316D01*
X186136Y239948D02*
X189438D01*
X195788D02*
X198582D01*
X203916D02*
X206710D01*
X207726D02*
X210520D01*
X239476D02*
X245064D01*
X99392Y243804D02*
X126824D01*
X185882Y240202D02*
X189184D01*
X195788D02*
X198582D01*
X203916D02*
X206710D01*
X207726D02*
X210520D01*
X239476D02*
X245064D01*
X99138Y244058D02*
X127078D01*
X185882Y240456D02*
X188930D01*
X195534D02*
X198582D01*
X203916D02*
X206710D01*
X207726D02*
X210520D01*
X239476D02*
X245064D01*
X98630Y244312D02*
X127332D01*
X185882Y240710D02*
X188676D01*
X195534D02*
X198582D01*
X203916D02*
X206710D01*
X207726D02*
X210520D01*
X239476D02*
X245064D01*
X98376Y244566D02*
X127332D01*
X185628Y240964D02*
X188676D01*
X195534D02*
X198582D01*
X203916D02*
X206710D01*
X207726D02*
X210774D01*
X239476D02*
X245064D01*
X98376Y244820D02*
X127586D01*
X185628Y241218D02*
X188676D01*
X195534D02*
X198582D01*
X204170D02*
X206710D01*
X207980D02*
X211028D01*
X239476D02*
X245064D01*
X98376Y245074D02*
X127840D01*
X185628Y241472D02*
X188422D01*
X195534D02*
X198582D01*
X204170D02*
X206710D01*
X207980D02*
X211536D01*
X239476D02*
X245064D01*
X98122Y245328D02*
X128094D01*
X185628Y241726D02*
X188422D01*
X195534D02*
X198582D01*
X204170D02*
X206710D01*
X208234D02*
X211790D01*
X239476D02*
X245064D01*
X97868Y245582D02*
X128094D01*
X185374Y241980D02*
X188422D01*
X195534D02*
X198582D01*
X204170D02*
X206710D01*
X208234D02*
X212298D01*
X239476D02*
X245064D01*
X97614Y245836D02*
X128348D01*
X185374Y242234D02*
X188168D01*
X195534D02*
X198582D01*
X204170D02*
X206710D01*
X208488D02*
X212806D01*
X239476D02*
X245064D01*
X97360Y246090D02*
X100662D01*
X106504D02*
X128856D01*
X185374Y242488D02*
X188168D01*
X195534D02*
X198582D01*
X204170D02*
X206710D01*
X208488D02*
X213314D01*
X239476D02*
X245064D01*
X97106Y246344D02*
X99392D01*
X107266D02*
X128856D01*
X185374Y242742D02*
X188168D01*
X195534D02*
X198582D01*
X204170D02*
X206710D01*
X208742D02*
X214076D01*
X239476D02*
X245064D01*
X96852Y246598D02*
X98884D01*
X107774D02*
X129110D01*
X185374Y242996D02*
X188168D01*
X195534D02*
X198582D01*
X204170D02*
X206710D01*
X208996D02*
X214330D01*
X239476D02*
X245064D01*
X96852Y246852D02*
X98376D01*
X108536D02*
X129364D01*
X185374Y243250D02*
X188168D01*
X195534D02*
X198582D01*
X204170D02*
X206710D01*
X209250D02*
X214838D01*
X239476D02*
X245064D01*
X96852Y247106D02*
X98122D01*
X108790D02*
X129364D01*
X185374Y243504D02*
X188168D01*
X195534D02*
X198582D01*
X204170D02*
X206710D01*
X209758D02*
X215346D01*
X239476D02*
X245064D01*
X96598Y247360D02*
X97360D01*
X109552D02*
X129364D01*
X185374Y243758D02*
X188168D01*
X195534D02*
X198582D01*
X204170D02*
X206710D01*
X210012D02*
X215600D01*
X239476D02*
X245064D01*
X96344Y247614D02*
X97106D01*
X109552D02*
X129364D01*
X185374Y244012D02*
X188168D01*
X195534D02*
X198582D01*
X204170D02*
X206710D01*
X210520D02*
X215854D01*
X239476D02*
X245064D01*
X96090Y247868D02*
X96852D01*
X110060D02*
X129618D01*
X185374Y244266D02*
X188168D01*
X195534D02*
X198582D01*
X204170D02*
X206710D01*
X211028D02*
X216108D01*
X239476D02*
X245064D01*
X110822Y248122D02*
X129872D01*
X185374Y244520D02*
X188168D01*
X195534D02*
X198582D01*
X204170D02*
X206710D01*
X211536D02*
X216362D01*
X239476D02*
X245064D01*
X111076Y248376D02*
X129872D01*
X185374Y244774D02*
X188422D01*
X195534D02*
X198582D01*
X204170D02*
X206710D01*
X212044D02*
X216616D01*
X239476D02*
X245064D01*
X111330Y248630D02*
X129872D01*
X185374Y245028D02*
X188422D01*
X195534D02*
X198582D01*
X204170D02*
X206710D01*
X212552D02*
X216870D01*
X239476D02*
X245064D01*
X111330Y248884D02*
X129872D01*
X185628Y245282D02*
X188422D01*
X195534D02*
X198582D01*
X204170D02*
X206710D01*
X213060D02*
X216870D01*
X239476D02*
X245064D01*
X111838Y249138D02*
X130126D01*
X185628Y245536D02*
X188676D01*
X195534D02*
X198582D01*
X204170D02*
X206710D01*
X213568D02*
X217124D01*
X239476D02*
X245064D01*
X111838Y249392D02*
X130126D01*
X185628Y245790D02*
X188676D01*
X195534D02*
X198582D01*
X204170D02*
X206710D01*
X213822D02*
X217124D01*
X239476D02*
X245064D01*
X112346Y249646D02*
X130380D01*
X185882Y246044D02*
X188930D01*
X195534D02*
X198582D01*
X204170D02*
X206710D01*
X214330D02*
X217124D01*
X239476D02*
X245064D01*
X112346Y249900D02*
X130380D01*
X185882Y246298D02*
X188930D01*
X195534D02*
X198582D01*
X204170D02*
X206710D01*
X214330D02*
X217124D01*
X239476D02*
X245064D01*
X112600Y250154D02*
X130634D01*
X185882Y246552D02*
X189184D01*
X195534D02*
X198582D01*
X204170D02*
X206710D01*
X214584D02*
X217124D01*
X232110D02*
X245064D01*
X113108Y250408D02*
X130634D01*
X186136Y246806D02*
X189438D01*
X195534D02*
X198582D01*
X204170D02*
X206710D01*
X214584D02*
X217124D01*
X230586D02*
X245064D01*
X113108Y250662D02*
X130634D01*
X186136Y247060D02*
X189692D01*
X195534D02*
X198582D01*
X204170D02*
X206710D01*
X214584D02*
X217124D01*
X229824D02*
X245064D01*
X113362Y250916D02*
X130634D01*
X186390Y247314D02*
X189946D01*
X195534D02*
X198582D01*
X204170D02*
X206710D01*
X214584D02*
X217124D01*
X229062D02*
X245064D01*
X113616Y251170D02*
X130634D01*
X186390Y247568D02*
X190454D01*
X195534D02*
X198582D01*
X204170D02*
X206710D01*
X214330D02*
X217124D01*
X228554D02*
X245064D01*
X113870Y251424D02*
X130634D01*
X186644Y247822D02*
X191216D01*
X195534D02*
X198582D01*
X204170D02*
X206710D01*
X214076D02*
X217124D01*
X228046D02*
X245064D01*
X113870Y251678D02*
X130634D01*
X186898Y248076D02*
X198582D01*
X204170D02*
X206710D01*
X208234D02*
X216870D01*
X227792D02*
X245064D01*
X113870Y251932D02*
X130888D01*
X187152Y248330D02*
X198582D01*
X204170D02*
X206710D01*
X207980D02*
X216870D01*
X227538D02*
X245064D01*
X114124Y252186D02*
X130888D01*
X187406Y248584D02*
X198582D01*
X204170D02*
X206710D01*
X207980D02*
X216870D01*
X227030D02*
X245064D01*
X113870Y252440D02*
X130888D01*
X187660Y248838D02*
X198582D01*
X204170D02*
X206710D01*
X207980D02*
X216616D01*
X226776D02*
X245064D01*
X114378Y252694D02*
X130888D01*
X187914Y249092D02*
X198582D01*
X204170D02*
X206710D01*
X207980D02*
X216362D01*
X226776D02*
X245064D01*
X114378Y252948D02*
X130888D01*
X188168Y249346D02*
X198582D01*
X204170D02*
X206710D01*
X207980D02*
X216108D01*
X226522D02*
X245064D01*
X114378Y253202D02*
X130888D01*
X188422Y249600D02*
X198582D01*
X204170D02*
X206710D01*
X207980D02*
X215854D01*
X226268D02*
X245064D01*
X114378Y253456D02*
X130888D01*
X188930Y249854D02*
X198582D01*
X204170D02*
X206710D01*
X207980D02*
X215600D01*
X226014D02*
X245064D01*
X114632Y253710D02*
X130888D01*
X189438Y250108D02*
X198582D01*
X204170D02*
X206710D01*
X207980D02*
X215092D01*
X226014D02*
X245064D01*
X114886Y253964D02*
X130888D01*
X190200Y250362D02*
X198582D01*
X204170D02*
X206710D01*
X207980D02*
X214330D01*
X225760D02*
X245064D01*
X114886Y254218D02*
X130888D01*
X225760Y250616D02*
X245064D01*
X114886Y254472D02*
X130888D01*
X225760Y250870D02*
X245064D01*
X114886Y254726D02*
X130888D01*
X225506Y251124D02*
X245064D01*
X115140Y254980D02*
X130888D01*
X225506Y251378D02*
X245064D01*
X103202Y255234D02*
X103456D01*
X115140D02*
X130888D01*
X225506Y251632D02*
X245064D01*
X100662Y255488D02*
X104980D01*
X115140D02*
X130634D01*
X225252Y251886D02*
X233380D01*
X100154Y255742D02*
X105234D01*
X115140D02*
X130634D01*
X225252Y252140D02*
X232618D01*
X98884Y255996D02*
X106504D01*
X115140D02*
X130634D01*
X225252Y252394D02*
X232110D01*
X98376Y256250D02*
X107012D01*
X115140D02*
X130634D01*
X225252Y252648D02*
X231856D01*
X98376Y256504D02*
X107266D01*
X115140D02*
X130634D01*
X225252Y252902D02*
X231856D01*
X97868Y256758D02*
X107520D01*
X115140D02*
X130380D01*
X176230Y253156D02*
X179024D01*
X181056D02*
X181310D01*
X206202D02*
X207980D01*
X225252D02*
X231602D01*
X97614Y257012D02*
X108028D01*
X115140D02*
X130380D01*
X167086Y253410D02*
X173944D01*
X176230D02*
X179278D01*
X181056D02*
X184358D01*
X189692D02*
X192486D01*
X192740D02*
X195534D01*
X204932D02*
X207980D01*
X214838D02*
X217378D01*
X225252D02*
X231602D01*
X97614Y257266D02*
X108028D01*
X115140D02*
X130380D01*
X166578Y253664D02*
X173944D01*
X176230D02*
X179278D01*
X181310D02*
X184612D01*
X189946D02*
X192486D01*
X192740D02*
X195534D01*
X204932D02*
X207726D01*
X214838D02*
X217378D01*
X222204D02*
X222458D01*
X225252D02*
X231348D01*
X97360Y257520D02*
X108282D01*
X115140D02*
X130126D01*
X166070Y253918D02*
X173944D01*
X176230D02*
X179278D01*
X181564D02*
X184866D01*
X189946D02*
X192486D01*
X192740D02*
X195788D01*
X204932D02*
X207726D01*
X214838D02*
X217378D01*
X222204D02*
X222712D01*
X225252D02*
X231348D01*
X97106Y257774D02*
X108790D01*
X115140D02*
X130126D01*
X165816Y254172D02*
X173944D01*
X176230D02*
X179278D01*
X181818D02*
X185120D01*
X189946D02*
X192486D01*
X192994D02*
X195788D01*
X204678D02*
X207726D01*
X214838D02*
X217378D01*
X222204D02*
X222712D01*
X225252D02*
X231348D01*
X96852Y258028D02*
X109298D01*
X115140D02*
X129872D01*
X165308Y254426D02*
X173944D01*
X176230D02*
X179278D01*
X182072D02*
X185374D01*
X189946D02*
X192486D01*
X192994D02*
X196042D01*
X204678D02*
X207472D01*
X214838D02*
X217378D01*
X221950D02*
X222712D01*
X225252D02*
X231348D01*
X96852Y258282D02*
X109552D01*
X115140D02*
X129872D01*
X165308Y254680D02*
X173944D01*
X176230D02*
X179278D01*
X182326D02*
X185628D01*
X189946D02*
X192486D01*
X193248D02*
X196042D01*
X204424D02*
X207472D01*
X214838D02*
X217378D01*
X221950D02*
X222712D01*
X225252D02*
X231348D01*
X96852Y258536D02*
X109552D01*
X115140D02*
X129618D01*
X165054Y254934D02*
X173944D01*
X176230D02*
X179278D01*
X182580D02*
X185882D01*
X189946D02*
X192486D01*
X193248D02*
X196296D01*
X204424D02*
X207218D01*
X214838D02*
X217378D01*
X221950D02*
X222712D01*
X225252D02*
X231348D01*
X96852Y258790D02*
X109552D01*
X115140D02*
X129618D01*
X164800Y255188D02*
X173944D01*
X176230D02*
X179278D01*
X182580D02*
X186136D01*
X189946D02*
X192486D01*
X193502D02*
X196296D01*
X204424D02*
X207218D01*
X214838D02*
X217378D01*
X221950D02*
X222966D01*
X225506D02*
X231602D01*
X96852Y259044D02*
X109806D01*
X115140D02*
X129364D01*
X164800Y255442D02*
X173944D01*
X176230D02*
X179278D01*
X182834D02*
X186136D01*
X189946D02*
X192486D01*
X193502D02*
X196296D01*
X204170D02*
X207218D01*
X214838D02*
X217378D01*
X221950D02*
X222966D01*
X225506D02*
X231602D01*
X96852Y259298D02*
X110060D01*
X115140D02*
X129364D01*
X164546Y255696D02*
X173944D01*
X176230D02*
X179278D01*
X183088D02*
X186390D01*
X189946D02*
X192486D01*
X193756D02*
X196550D01*
X204170D02*
X206964D01*
X214838D02*
X217378D01*
X221950D02*
X223220D01*
X225506D02*
X231602D01*
X96852Y259552D02*
X110060D01*
X115140D02*
X129364D01*
X164546Y255950D02*
X167594D01*
X176230D02*
X179278D01*
X183342D02*
X186644D01*
X189946D02*
X192486D01*
X193756D02*
X196550D01*
X204170D02*
X206964D01*
X214838D02*
X217378D01*
X221950D02*
X223220D01*
X225506D02*
X231856D01*
X96852Y259806D02*
X110314D01*
X115140D02*
X129364D01*
X164546Y256204D02*
X167086D01*
X176230D02*
X179278D01*
X183596D02*
X186898D01*
X189946D02*
X192486D01*
X193756D02*
X196804D01*
X203916D02*
X206710D01*
X214838D02*
X217378D01*
X221950D02*
X223474D01*
X225760D02*
X232110D01*
X97106Y260060D02*
X110568D01*
X115140D02*
X129110D01*
X164546Y256458D02*
X167086D01*
X176230D02*
X179278D01*
X183850D02*
X187152D01*
X189946D02*
X192486D01*
X194010D02*
X196804D01*
X203916D02*
X206710D01*
X214838D02*
X217378D01*
X221950D02*
X223474D01*
X225760D02*
X232364D01*
X97106Y260314D02*
X110822D01*
X115140D02*
X128856D01*
X164546Y256712D02*
X167086D01*
X176230D02*
X179278D01*
X184104D02*
X187406D01*
X189946D02*
X192486D01*
X194010D02*
X197058D01*
X203662D02*
X206456D01*
X214838D02*
X217378D01*
X221950D02*
X223728D01*
X226014D02*
X232618D01*
X97360Y260568D02*
X110822D01*
X115140D02*
X128856D01*
X164292Y256966D02*
X166832D01*
X176230D02*
X179278D01*
X184358D02*
X187660D01*
X189946D02*
X192486D01*
X194264D02*
X197058D01*
X203662D02*
X206456D01*
X214838D02*
X217378D01*
X221950D02*
X223728D01*
X226014D02*
X233126D01*
X97614Y260822D02*
X111076D01*
X115140D02*
X128602D01*
X164292Y257220D02*
X166832D01*
X176230D02*
X179278D01*
X184612D02*
X187914D01*
X189946D02*
X192486D01*
X194264D02*
X197312D01*
X203662D02*
X206456D01*
X214838D02*
X217378D01*
X221950D02*
X223982D01*
X226268D02*
X233380D01*
X97614Y261076D02*
X111330D01*
X115140D02*
X128348D01*
X164292Y257474D02*
X167086D01*
X176230D02*
X179278D01*
X184866D02*
X188168D01*
X189946D02*
X192486D01*
X194518D02*
X197312D01*
X203408D02*
X206202D01*
X214838D02*
X217378D01*
X221950D02*
X224236D01*
X226522D02*
X233888D01*
X97868Y261330D02*
X111330D01*
X115140D02*
X128094D01*
X164546Y257728D02*
X167086D01*
X176230D02*
X179278D01*
X185120D02*
X188422D01*
X189946D02*
X192486D01*
X194518D02*
X197312D01*
X203408D02*
X206202D01*
X214838D02*
X217378D01*
X221950D02*
X224236D01*
X226522D02*
X234396D01*
X98122Y261584D02*
X111330D01*
X115140D02*
X128094D01*
X164546Y257982D02*
X167340D01*
X176230D02*
X179278D01*
X185374D02*
X188676D01*
X189946D02*
X192486D01*
X194772D02*
X205948D01*
X214838D02*
X217378D01*
X222204D02*
X224490D01*
X226776D02*
X234904D01*
X98376Y261838D02*
X111584D01*
X115140D02*
X127586D01*
X164546Y258236D02*
X167594D01*
X176230D02*
X179278D01*
X185628D02*
X188930D01*
X189946D02*
X192486D01*
X194772D02*
X205948D01*
X214838D02*
X217378D01*
X222204D02*
X224744D01*
X227030D02*
X235412D01*
X98376Y262092D02*
X111584D01*
X115140D02*
X127332D01*
X164546Y258490D02*
X167848D01*
X176230D02*
X179278D01*
X185882D02*
X189184D01*
X189946D02*
X192486D01*
X195026D02*
X205948D01*
X210012D02*
X214076D01*
X214838D02*
X217378D01*
X222204D02*
X224998D01*
X227284D02*
X235920D01*
X98630Y262346D02*
X111584D01*
X115140D02*
X127332D01*
X164800Y258744D02*
X168356D01*
X176230D02*
X179278D01*
X184612D02*
X189184D01*
X189946D02*
X192486D01*
X195026D02*
X205694D01*
X209250D02*
X214076D01*
X214838D02*
X217378D01*
X222204D02*
X225252D01*
X227538D02*
X236428D01*
X98884Y262600D02*
X111838D01*
X115140D02*
X127078D01*
X164800Y258998D02*
X168864D01*
X176230D02*
X179278D01*
X183850D02*
X188930D01*
X189946D02*
X192486D01*
X195280D02*
X205694D01*
X208488D02*
X213822D01*
X214838D02*
X217378D01*
X222458D02*
X225506D01*
X227792D02*
X236936D01*
X99138Y262854D02*
X111838D01*
X115140D02*
X127078D01*
X165054Y259252D02*
X169372D01*
X176230D02*
X179278D01*
X183342D02*
X188930D01*
X189946D02*
X192486D01*
X195280D02*
X205440D01*
X208234D02*
X213822D01*
X214838D02*
X217378D01*
X222458D02*
X225760D01*
X228046D02*
X237444D01*
X99392Y263108D02*
X111838D01*
X115140D02*
X126570D01*
X165308Y259506D02*
X169880D01*
X176230D02*
X179278D01*
X182834D02*
X188930D01*
X189946D02*
X192486D01*
X195280D02*
X205440D01*
X207726D02*
X213822D01*
X214838D02*
X217378D01*
X222458D02*
X226014D01*
X228300D02*
X237698D01*
X99646Y263362D02*
X111838D01*
X115140D02*
X126316D01*
X165308Y259760D02*
X170388D01*
X176230D02*
X179278D01*
X182580D02*
X188676D01*
X189946D02*
X192486D01*
X195534D02*
X205440D01*
X207472D02*
X213568D01*
X214838D02*
X217378D01*
X222712D02*
X226268D01*
X228808D02*
X238206D01*
X100154Y263616D02*
X112092D01*
X115140D02*
X126062D01*
X165562Y260014D02*
X170896D01*
X176230D02*
X179278D01*
X182326D02*
X188676D01*
X189946D02*
X192486D01*
X195534D02*
X205186D01*
X207218D02*
X213568D01*
X214838D02*
X217378D01*
X222712D02*
X226522D01*
X229062D02*
X238714D01*
X100662Y263870D02*
X112092D01*
X115140D02*
X125554D01*
X165816Y260268D02*
X171404D01*
X176230D02*
X179278D01*
X182072D02*
X188676D01*
X189946D02*
X192486D01*
X195788D02*
X198582D01*
X202392D02*
X205186D01*
X206964D02*
X213568D01*
X214838D02*
X217378D01*
X222966D02*
X227030D01*
X229570D02*
X238968D01*
X100662Y264124D02*
X112346D01*
X115140D02*
X125300D01*
X166324Y260522D02*
X171912D01*
X176230D02*
X179278D01*
X181818D02*
X188422D01*
X189946D02*
X192486D01*
X195788D02*
X198582D01*
X202138D02*
X204932D01*
X206710D02*
X213314D01*
X214838D02*
X217378D01*
X222966D02*
X227284D01*
X229824D02*
X239476D01*
X100916Y264378D02*
X112346D01*
X115140D02*
X125046D01*
X166578Y260776D02*
X172166D01*
X176230D02*
X179278D01*
X181818D02*
X186390D01*
X189946D02*
X192486D01*
X196042D02*
X198836D01*
X202138D02*
X204932D01*
X206710D02*
X211028D01*
X214838D02*
X217378D01*
X223220D02*
X227792D01*
X230332D02*
X239730D01*
X101170Y264632D02*
X112346D01*
X115140D02*
X124792D01*
X167086Y261030D02*
X172420D01*
X176230D02*
X179278D01*
X181564D02*
X185374D01*
X189946D02*
X192486D01*
X196042D02*
X198836D01*
X202138D02*
X204932D01*
X206456D02*
X210012D01*
X214838D02*
X217378D01*
X223474D02*
X228046D01*
X230840D02*
X239984D01*
X101424Y264886D02*
X112346D01*
X115140D02*
X124538D01*
X167594Y261284D02*
X172674D01*
X176230D02*
X179278D01*
X181564D02*
X184866D01*
X189946D02*
X192486D01*
X196296D02*
X199090D01*
X201884D02*
X204678D01*
X206456D02*
X209504D01*
X214838D02*
X217378D01*
X223474D02*
X228554D01*
X231348D02*
X240492D01*
X101932Y265140D02*
X112600D01*
X115140D02*
X124284D01*
X168102Y261538D02*
X172928D01*
X176230D02*
X179278D01*
X181310D02*
X184358D01*
X189946D02*
X192486D01*
X196296D02*
X199090D01*
X201884D02*
X204678D01*
X206456D02*
X209250D01*
X214838D02*
X217378D01*
X223728D02*
X229062D01*
X231856D02*
X240746D01*
X102186Y265394D02*
X112600D01*
X115140D02*
X124030D01*
X168610Y261792D02*
X173182D01*
X176230D02*
X179278D01*
X181310D02*
X184104D01*
X189946D02*
X192486D01*
X196550D02*
X199344D01*
X201630D02*
X204424D01*
X206202D02*
X208996D01*
X214838D02*
X217378D01*
X223982D02*
X229316D01*
X232618D02*
X241000D01*
X102694Y265648D02*
X112600D01*
X115140D02*
X123268D01*
X169118Y262046D02*
X173182D01*
X176230D02*
X179278D01*
X181310D02*
X184104D01*
X189946D02*
X192486D01*
X196550D02*
X199344D01*
X201630D02*
X204424D01*
X206202D02*
X208996D01*
X214838D02*
X217378D01*
X224236D02*
X229824D01*
X233126D02*
X241254D01*
X103202Y265902D02*
X112600D01*
X115140D02*
X122760D01*
X169626Y262300D02*
X173436D01*
X176230D02*
X179278D01*
X181310D02*
X183850D01*
X189946D02*
X192486D01*
X196550D02*
X199344D01*
X201630D02*
X204170D01*
X206202D02*
X208996D01*
X214838D02*
X217378D01*
X224490D02*
X230332D01*
X233634D02*
X241508D01*
X103710Y266156D02*
X112600D01*
X115140D02*
X122506D01*
X170134Y262554D02*
X173436D01*
X176230D02*
X179278D01*
X181310D02*
X183850D01*
X189946D02*
X192486D01*
X196804D02*
X199598D01*
X201376D02*
X204170D01*
X206202D02*
X208742D01*
X214838D02*
X217378D01*
X224744D02*
X230840D01*
X234396D02*
X241762D01*
X104472Y266410D02*
X112600D01*
X115140D02*
X121744D01*
X170388Y262808D02*
X173690D01*
X176230D02*
X179278D01*
X181310D02*
X183850D01*
X189946D02*
X192486D01*
X196804D02*
X199598D01*
X201376D02*
X204170D01*
X206202D02*
X208742D01*
X214838D02*
X217378D01*
X224998D02*
X231602D01*
X234904D02*
X242016D01*
X104726Y266664D02*
X112854D01*
X115140D02*
X121236D01*
X170896Y263062D02*
X173690D01*
X176230D02*
X179278D01*
X181310D02*
X183850D01*
X189946D02*
X192486D01*
X197058D02*
X199852D01*
X201122D02*
X203916D01*
X206202D02*
X208742D01*
X214838D02*
X217378D01*
X225506D02*
X232110D01*
X235666D02*
X242270D01*
X105234Y266918D02*
X112854D01*
X115140D02*
X120474D01*
X170896Y263316D02*
X173690D01*
X176230D02*
X179278D01*
X181310D02*
X183850D01*
X189946D02*
X192486D01*
X197058D02*
X199852D01*
X201122D02*
X203916D01*
X206202D02*
X208742D01*
X214838D02*
X217378D01*
X225760D02*
X232618D01*
X236174D02*
X242524D01*
X105742Y267172D02*
X112854D01*
X115140D02*
X120474D01*
X171150Y263570D02*
X173690D01*
X176230D02*
X179278D01*
X181310D02*
X183850D01*
X189946D02*
X192486D01*
X197312D02*
X200106D01*
X201122D02*
X203662D01*
X206202D02*
X208742D01*
X214838D02*
X217378D01*
X226014D02*
X233126D01*
X236682D02*
X242778D01*
X106758Y267426D02*
X112854D01*
X115140D02*
X119458D01*
X171150Y263824D02*
X173690D01*
X176230D02*
X179278D01*
X181310D02*
X184104D01*
X189946D02*
X192486D01*
X197312D02*
X200106D01*
X200868D02*
X203662D01*
X206202D02*
X208996D01*
X214838D02*
X217378D01*
X226522D02*
X233888D01*
X237190D02*
X242778D01*
X107266Y267680D02*
X112854D01*
X115140D02*
X118696D01*
X171150Y264078D02*
X173690D01*
X176230D02*
X179278D01*
X181310D02*
X184104D01*
X189946D02*
X192486D01*
X197566D02*
X200106D01*
X200868D02*
X203662D01*
X206202D02*
X208996D01*
X214838D02*
X217378D01*
X227030D02*
X234396D01*
X237952D02*
X243032D01*
X108790Y267934D02*
X113108D01*
X115140D02*
X117426D01*
X171150Y264332D02*
X173690D01*
X176230D02*
X179278D01*
X181310D02*
X184358D01*
X189946D02*
X192486D01*
X197566D02*
X200360D01*
X200614D02*
X203408D01*
X206202D02*
X209250D01*
X214838D02*
X217378D01*
X227284D02*
X234904D01*
X238460D02*
X243286D01*
X110822Y268188D02*
X113108D01*
X115140D02*
X117172D01*
X170896Y264586D02*
X173690D01*
X176230D02*
X179278D01*
X181564D02*
X184612D01*
X189946D02*
X192486D01*
X197820D02*
X200360D01*
X200614D02*
X203408D01*
X206456D02*
X209504D01*
X214838D02*
X217378D01*
X227792D02*
X235412D01*
X238968D02*
X243286D01*
X115140Y268442D02*
X117172D01*
X170896Y264840D02*
X173690D01*
X176230D02*
X179278D01*
X181564D02*
X185120D01*
X189946D02*
X192486D01*
X197820D02*
X203154D01*
X206456D02*
X210012D01*
X214838D02*
X217378D01*
X228300D02*
X235920D01*
X239476D02*
X243540D01*
X115140Y268696D02*
X117172D01*
X164800Y265094D02*
X165054D01*
X169880D02*
X173436D01*
X176230D02*
X179278D01*
X181564D02*
X186390D01*
X189946D02*
X192486D01*
X198074D02*
X203154D01*
X206456D02*
X211282D01*
X214838D02*
X217378D01*
X228808D02*
X236428D01*
X239730D02*
X243540D01*
X115140Y268950D02*
X117172D01*
X164800Y265348D02*
X173436D01*
X176230D02*
X179278D01*
X181818D02*
X192486D01*
X198074D02*
X203154D01*
X206710D02*
X217378D01*
X229316D02*
X236936D01*
X240238D02*
X243794D01*
X115140Y269204D02*
X117172D01*
X164800Y265602D02*
X173436D01*
X176230D02*
X179278D01*
X182072D02*
X192486D01*
X198074D02*
X202900D01*
X206964D02*
X217378D01*
X229824D02*
X237444D01*
X240492D02*
X243794D01*
X115140Y269458D02*
X117172D01*
X164800Y265856D02*
X173182D01*
X176230D02*
X179278D01*
X182072D02*
X192486D01*
X198328D02*
X202900D01*
X206964D02*
X217378D01*
X230332D02*
X237952D01*
X241000D02*
X244048D01*
X115140Y269712D02*
X117172D01*
X164800Y266110D02*
X172928D01*
X176230D02*
X179278D01*
X182326D02*
X192486D01*
X198328D02*
X202646D01*
X207218D02*
X217378D01*
X230840D02*
X238206D01*
X241254D02*
X244048D01*
X115140Y269966D02*
X117172D01*
X164800Y266364D02*
X172674D01*
X176230D02*
X179278D01*
X182580D02*
X192486D01*
X198582D02*
X202646D01*
X207472D02*
X217378D01*
X231348D02*
X238714D01*
X241762D02*
X244302D01*
X115140Y270220D02*
X117172D01*
X164800Y266618D02*
X172420D01*
X176230D02*
X179278D01*
X183088D02*
X192486D01*
X198582D02*
X202646D01*
X207980D02*
X217378D01*
X231856D02*
X238968D01*
X242016D02*
X244302D01*
X115140Y270474D02*
X117172D01*
X164800Y266872D02*
X172166D01*
X176230D02*
X179278D01*
X183596D02*
X192486D01*
X198836D02*
X202392D01*
X208488D02*
X217378D01*
X232364D02*
X239222D01*
X242270D02*
X244302D01*
X115140Y270728D02*
X117172D01*
X164800Y267126D02*
X171658D01*
X176230D02*
X179278D01*
X184358D02*
X192486D01*
X198836D02*
X202392D01*
X209250D02*
X217378D01*
X232872D02*
X239476D01*
X242524D02*
X244556D01*
X115140Y270982D02*
X117172D01*
X164800Y267380D02*
X170896D01*
X176230D02*
X179278D01*
X185374D02*
X192486D01*
X199090D02*
X202138D01*
X210520D02*
X217378D01*
X233126D02*
X239730D01*
X242778D02*
X244556D01*
X115140Y271236D02*
X117172D01*
X233634Y267634D02*
X239984D01*
X243032D02*
X244556D01*
X115140Y271490D02*
X117172D01*
X234142Y267888D02*
X240238D01*
X243286D02*
X244810D01*
X115140Y271744D02*
X117172D01*
X234396Y268142D02*
X240492D01*
X243286D02*
X244810D01*
X115140Y271998D02*
X117172D01*
X234650Y268396D02*
X240746D01*
X243540D02*
X244810D01*
X115140Y272252D02*
X117172D01*
X234904Y268650D02*
X240746D01*
X243794D02*
X244810D01*
X115140Y272506D02*
X117172D01*
X234904Y268904D02*
X241000D01*
X243794D02*
X244810D01*
X115140Y272760D02*
X117172D01*
X235158Y269158D02*
X241254D01*
X244048D02*
X245064D01*
X115140Y273014D02*
X117172D01*
X235412Y269412D02*
X241254D01*
X244302D02*
X245064D01*
X115140Y273268D02*
X117172D01*
X235412Y269666D02*
X241254D01*
X244302D02*
X245064D01*
X115140Y273522D02*
X117172D01*
X235412Y269920D02*
X241508D01*
X244302D02*
X245064D01*
X115140Y273776D02*
X117172D01*
X235412Y270174D02*
X241508D01*
X244556D02*
X245064D01*
X115140Y274030D02*
X117172D01*
X235666Y270428D02*
X241508D01*
X244556D02*
X245064D01*
X115140Y274284D02*
X117172D01*
X235666Y270682D02*
X241762D01*
X244810D02*
X245064D01*
X115140Y274538D02*
X117172D01*
X235666Y270936D02*
X241762D01*
X244810D02*
X245064D01*
X115140Y274792D02*
X117172D01*
X183088Y271190D02*
X183342D01*
X197566D02*
X198836D01*
X204932D02*
X205948D01*
X214076D02*
X215092D01*
X235666D02*
X241762D01*
X244810D02*
X245064D01*
X115140Y275046D02*
X117172D01*
X164800Y271444D02*
X169372D01*
X171658D02*
X173436D01*
X175468D02*
X177246D01*
X178770D02*
X182834D01*
X183088D02*
X184866D01*
X187406D02*
X188930D01*
X189692D02*
X194518D01*
X197312D02*
X199090D01*
X201884D02*
X203916D01*
X204424D02*
X206456D01*
X209250D02*
X211028D01*
X213060D02*
X216108D01*
X235412D02*
X241762D01*
X244810D02*
X245064D01*
X115140Y275300D02*
X117172D01*
X164800Y271698D02*
X169372D01*
X171658D02*
X173436D01*
X175468D02*
X177246D01*
X178516D02*
X182834D01*
X183342D02*
X185120D01*
X187406D02*
X188930D01*
X189692D02*
X194518D01*
X197312D02*
X199344D01*
X201884D02*
X203916D01*
X204424D02*
X206710D01*
X209250D02*
X210774D01*
X212806D02*
X216362D01*
X235412D02*
X241762D01*
X115140Y275554D02*
X117172D01*
X164800Y271952D02*
X169372D01*
X171658D02*
X173436D01*
X175468D02*
X177246D01*
X178262D02*
X182834D01*
X183596D02*
X185374D01*
X187406D02*
X188930D01*
X189692D02*
X194518D01*
X197312D02*
X199598D01*
X201884D02*
X203916D01*
X204424D02*
X206964D01*
X209250D02*
X210774D01*
X212298D02*
X216616D01*
X235412D02*
X241762D01*
X115140Y275808D02*
X117172D01*
X164800Y272206D02*
X169372D01*
X171658D02*
X173436D01*
X175468D02*
X177246D01*
X178008D02*
X182834D01*
X183850D02*
X185628D01*
X187406D02*
X188930D01*
X189692D02*
X194518D01*
X197058D02*
X199598D01*
X201884D02*
X203916D01*
X204424D02*
X206964D01*
X209250D02*
X210774D01*
X212298D02*
X216870D01*
X235158D02*
X241762D01*
X115140Y276062D02*
X117172D01*
X164800Y272460D02*
X169372D01*
X171658D02*
X173436D01*
X175468D02*
X177246D01*
X178008D02*
X182834D01*
X184104D02*
X185882D01*
X187406D02*
X188930D01*
X189692D02*
X194518D01*
X197058D02*
X199598D01*
X201884D02*
X203916D01*
X204424D02*
X207218D01*
X209250D02*
X210774D01*
X212044D02*
X214076D01*
X215092D02*
X217124D01*
X234904D02*
X241762D01*
X115140Y276316D02*
X117172D01*
X167848Y272714D02*
X169372D01*
X171658D02*
X173436D01*
X175468D02*
X177246D01*
X177754D02*
X179532D01*
X184358D02*
X186136D01*
X187406D02*
X188930D01*
X192740D02*
X194518D01*
X197058D02*
X199852D01*
X201884D02*
X203916D01*
X204424D02*
X207218D01*
X209250D02*
X210774D01*
X211790D02*
X213568D01*
X215600D02*
X217124D01*
X234650D02*
X241762D01*
X115140Y276570D02*
X117172D01*
X167848Y272968D02*
X169372D01*
X171658D02*
X173436D01*
X175468D02*
X177246D01*
X177754D02*
X179278D01*
X184612D02*
X186390D01*
X187406D02*
X188930D01*
X192740D02*
X194518D01*
X196804D02*
X199852D01*
X201884D02*
X203916D01*
X204424D02*
X207472D01*
X209250D02*
X210774D01*
X211790D02*
X213314D01*
X215854D02*
X217378D01*
X234142D02*
X241762D01*
X115140Y276824D02*
X117172D01*
X167848Y273222D02*
X169372D01*
X171658D02*
X173436D01*
X175468D02*
X177246D01*
X177754D02*
X179278D01*
X184866D02*
X186644D01*
X187406D02*
X188930D01*
X192740D02*
X194518D01*
X196804D02*
X200106D01*
X201884D02*
X203916D01*
X204424D02*
X207726D01*
X209250D02*
X210774D01*
X211790D02*
X213314D01*
X215854D02*
X217378D01*
X224998D02*
X241762D01*
X115140Y277078D02*
X117172D01*
X167848Y273476D02*
X169372D01*
X171658D02*
X173436D01*
X175468D02*
X177246D01*
X177754D02*
X179278D01*
X185120D02*
X186898D01*
X187406D02*
X188930D01*
X192740D02*
X194518D01*
X196550D02*
X198328D01*
X198582D02*
X200106D01*
X201884D02*
X203916D01*
X204424D02*
X207726D01*
X209250D02*
X210774D01*
X211790D02*
X213314D01*
X215854D02*
X217378D01*
X224998D02*
X241762D01*
X115140Y277332D02*
X117172D01*
X167848Y273730D02*
X169372D01*
X171658D02*
X173436D01*
X175468D02*
X177246D01*
X177754D02*
X179532D01*
X185374D02*
X187152D01*
X187406D02*
X188930D01*
X192740D02*
X194518D01*
X196550D02*
X198074D01*
X198582D02*
X200106D01*
X201884D02*
X203916D01*
X204424D02*
X207980D01*
X209250D02*
X210774D01*
X211790D02*
X213314D01*
X215854D02*
X217378D01*
X224744D02*
X241508D01*
X115140Y277586D02*
X117172D01*
X167848Y273984D02*
X169372D01*
X171658D02*
X173436D01*
X175468D02*
X177246D01*
X178008D02*
X179786D01*
X184866D02*
X187152D01*
X187406D02*
X188930D01*
X192740D02*
X194518D01*
X196550D02*
X198074D01*
X198582D02*
X200360D01*
X201884D02*
X203916D01*
X204424D02*
X206202D01*
X206456D02*
X207980D01*
X209250D02*
X210774D01*
X211790D02*
X213314D01*
X215854D02*
X217378D01*
X224744D02*
X241508D01*
X115140Y277840D02*
X117172D01*
X167848Y274238D02*
X169372D01*
X171658D02*
X173436D01*
X175468D02*
X177246D01*
X178008D02*
X180294D01*
X184358D02*
X187152D01*
X187406D02*
X188930D01*
X192740D02*
X194518D01*
X196296D02*
X198074D01*
X198836D02*
X200360D01*
X201884D02*
X203916D01*
X204424D02*
X206202D01*
X206456D02*
X208234D01*
X209250D02*
X210774D01*
X211790D02*
X213314D01*
X215854D02*
X217378D01*
X224490D02*
X241508D01*
X115140Y278094D02*
X117172D01*
X165054Y274492D02*
X169372D01*
X171658D02*
X173436D01*
X175468D02*
X177246D01*
X178262D02*
X180802D01*
X183850D02*
X187152D01*
X187406D02*
X188930D01*
X190200D02*
X194518D01*
X196296D02*
X197820D01*
X198836D02*
X200614D01*
X201884D02*
X203916D01*
X204424D02*
X206202D01*
X206710D02*
X208234D01*
X209250D02*
X210774D01*
X211790D02*
X213314D01*
X215854D02*
X217378D01*
X224490D02*
X241254D01*
X115140Y278348D02*
X117172D01*
X165054Y274746D02*
X169372D01*
X171658D02*
X173436D01*
X175468D02*
X177246D01*
X178516D02*
X181310D01*
X183596D02*
X186898D01*
X187406D02*
X188930D01*
X190200D02*
X194518D01*
X196296D02*
X197820D01*
X199090D02*
X200614D01*
X201884D02*
X203916D01*
X204424D02*
X206202D01*
X206710D02*
X208488D01*
X209250D02*
X210774D01*
X211790D02*
X213314D01*
X215854D02*
X217378D01*
X224236D02*
X241254D01*
X115140Y278602D02*
X117172D01*
X165054Y275000D02*
X169372D01*
X171658D02*
X173436D01*
X175468D02*
X177246D01*
X178770D02*
X181818D01*
X183342D02*
X186898D01*
X187406D02*
X188930D01*
X189946D02*
X194518D01*
X196042D02*
X197566D01*
X199090D02*
X200614D01*
X201884D02*
X203916D01*
X204424D02*
X206202D01*
X206964D02*
X208488D01*
X209250D02*
X210774D01*
X211790D02*
X213314D01*
X215854D02*
X217378D01*
X223982D02*
X241000D01*
X115140Y278856D02*
X117172D01*
X164800Y275254D02*
X169372D01*
X171658D02*
X173436D01*
X175468D02*
X177246D01*
X179278D02*
X182072D01*
X183342D02*
X185120D01*
X187406D02*
X188930D01*
X189946D02*
X194518D01*
X196042D02*
X197566D01*
X199090D02*
X200868D01*
X201884D02*
X203916D01*
X204424D02*
X206202D01*
X206964D02*
X208742D01*
X209250D02*
X210774D01*
X211790D02*
X213314D01*
X215854D02*
X217378D01*
X223982D02*
X241000D01*
X115140Y279110D02*
X117172D01*
X164800Y275508D02*
X169372D01*
X171658D02*
X173436D01*
X175468D02*
X177246D01*
X179786D02*
X182326D01*
X183342D02*
X184866D01*
X187406D02*
X188930D01*
X189692D02*
X194518D01*
X195788D02*
X197566D01*
X199344D02*
X200868D01*
X201884D02*
X203916D01*
X204424D02*
X206202D01*
X207218D02*
X208996D01*
X209250D02*
X210774D01*
X211790D02*
X213314D01*
X215854D02*
X217378D01*
X223728D02*
X240746D01*
X115140Y279364D02*
X117172D01*
X167848Y275762D02*
X169372D01*
X171658D02*
X173436D01*
X175468D02*
X177246D01*
X180294D02*
X182580D01*
X183088D02*
X184612D01*
X187406D02*
X188930D01*
X192740D02*
X194518D01*
X195788D02*
X197312D01*
X199344D02*
X201122D01*
X201884D02*
X203916D01*
X204424D02*
X206202D01*
X207472D02*
X208996D01*
X209250D02*
X210774D01*
X211790D02*
X213314D01*
X215854D02*
X217378D01*
X223728D02*
X240492D01*
X115140Y279618D02*
X117172D01*
X167848Y276016D02*
X169372D01*
X171658D02*
X173436D01*
X175468D02*
X177246D01*
X180802D02*
X182580D01*
X183088D02*
X184612D01*
X187406D02*
X188930D01*
X192740D02*
X194518D01*
X195788D02*
X197312D01*
X199598D02*
X201122D01*
X201884D02*
X203916D01*
X204424D02*
X206202D01*
X207472D02*
X210774D01*
X211790D02*
X213314D01*
X215854D02*
X217378D01*
X223474D02*
X240238D01*
X115140Y279872D02*
X117172D01*
X167848Y276270D02*
X169372D01*
X171658D02*
X173436D01*
X175468D02*
X177246D01*
X181056D02*
X182580D01*
X183088D02*
X184612D01*
X187406D02*
X188930D01*
X192740D02*
X194518D01*
X195534D02*
X197058D01*
X199598D02*
X201122D01*
X201884D02*
X203916D01*
X204424D02*
X206202D01*
X207726D02*
X210774D01*
X211790D02*
X213314D01*
X215854D02*
X217378D01*
X223474D02*
X239984D01*
X115140Y280126D02*
X117172D01*
X167848Y276524D02*
X169372D01*
X171658D02*
X173436D01*
X175468D02*
X177246D01*
X181310D02*
X182580D01*
X183088D02*
X184612D01*
X187406D02*
X188930D01*
X192740D02*
X194518D01*
X195534D02*
X197058D01*
X199598D02*
X201376D01*
X201884D02*
X203916D01*
X204424D02*
X206202D01*
X207726D02*
X210774D01*
X211790D02*
X213314D01*
X215854D02*
X217378D01*
X223220D02*
X239730D01*
X167848Y276778D02*
X169372D01*
X171658D02*
X173436D01*
X175468D02*
X177246D01*
X181056D02*
X182580D01*
X183088D02*
X184866D01*
X187406D02*
X188930D01*
X192740D02*
X194518D01*
X195280D02*
X197058D01*
X199852D02*
X201376D01*
X201884D02*
X203916D01*
X204424D02*
X206202D01*
X207980D02*
X210774D01*
X211790D02*
X213314D01*
X215854D02*
X217378D01*
X223220D02*
X239476D01*
X167848Y277032D02*
X169372D01*
X171658D02*
X173182D01*
X175468D02*
X177246D01*
X181056D02*
X182580D01*
X183342D02*
X185120D01*
X187406D02*
X188930D01*
X192740D02*
X194518D01*
X195280D02*
X196804D01*
X199852D02*
X201630D01*
X201884D02*
X203916D01*
X204424D02*
X206202D01*
X207980D02*
X210774D01*
X211790D02*
X213314D01*
X215854D02*
X217378D01*
X222966D02*
X238968D01*
X164800Y277286D02*
X169372D01*
X169880D02*
X175214D01*
X175468D02*
X177246D01*
X178008D02*
X182580D01*
X183342D02*
X188930D01*
X189692D02*
X194518D01*
X195280D02*
X196804D01*
X200106D02*
X201630D01*
X201884D02*
X203916D01*
X204424D02*
X206202D01*
X208234D02*
X210774D01*
X211790D02*
X213314D01*
X215854D02*
X217378D01*
X222966D02*
X238460D01*
X164800Y277540D02*
X169372D01*
X169880D02*
X175214D01*
X175468D02*
X177246D01*
X178008D02*
X182326D01*
X183596D02*
X188930D01*
X189692D02*
X194518D01*
X195026D02*
X196804D01*
X200106D02*
X201630D01*
X201884D02*
X203916D01*
X204424D02*
X206202D01*
X208488D02*
X210774D01*
X211790D02*
X213314D01*
X215854D02*
X217378D01*
X222712D02*
X237952D01*
X164800Y277794D02*
X169372D01*
X169880D02*
X175214D01*
X175468D02*
X177246D01*
X178008D02*
X182072D01*
X183850D02*
X188930D01*
X189692D02*
X194518D01*
X195026D02*
X196550D01*
X200106D02*
X203916D01*
X204424D02*
X206202D01*
X208488D02*
X210774D01*
X211790D02*
X213314D01*
X215854D02*
X217378D01*
X222712D02*
X237190D01*
X164800Y278048D02*
X169372D01*
X169880D02*
X175214D01*
X175468D02*
X177246D01*
X178008D02*
X181818D01*
X184104D02*
X188930D01*
X189692D02*
X194518D01*
X195026D02*
X196550D01*
X200360D02*
X203916D01*
X204424D02*
X206202D01*
X208742D02*
X210774D01*
X211790D02*
X213314D01*
X215854D02*
X217378D01*
X222458D02*
X236428D01*
X164800Y278302D02*
X169372D01*
X169880D02*
X175214D01*
X175468D02*
X177246D01*
X178008D02*
X181310D01*
X184866D02*
X188930D01*
X189692D02*
X194518D01*
X194772D02*
X196296D01*
X200360D02*
X203916D01*
X204424D02*
X206202D01*
X208996D02*
X211028D01*
X211790D02*
X213314D01*
X215854D02*
X217378D01*
X222204D02*
X234904D01*
X165816Y278810D02*
X166832D01*
X165562Y279064D02*
X166832D01*
X165308Y279318D02*
X166578D01*
X165054Y279572D02*
X166324D01*
X164800Y279826D02*
X166070D01*
X164546Y280080D02*
X166070D01*
D40*
X229001Y299000D02*
X230001Y300000D01*
X232000D01*
X233000Y299000D01*
Y295002D01*
X232000Y294002D01*
X230001D01*
X229001Y295002D01*
X227002Y294002D02*
Y300000D01*
X223003Y294002D01*
Y300000D01*
X217005D02*
X221004D01*
Y294002D01*
X217005D01*
X221004Y297001D02*
X219005D01*
X211007Y299000D02*
X212007Y300000D01*
X214006D01*
X215006Y299000D01*
Y298001D01*
X214006Y297001D01*
X212007D01*
X211007Y296001D01*
Y295002D01*
X212007Y294002D01*
X214006D01*
X215006Y295002D01*
X203010Y297001D02*
X199011D01*
X191014Y300000D02*
X189014D01*
X190014D01*
Y294002D01*
X191014D01*
X189014D01*
X186015Y300000D02*
Y295002D01*
X185016Y294002D01*
X183016D01*
X182017Y295002D01*
Y300000D01*
X180017D02*
X176019D01*
X178018D01*
Y294002D01*
X164022Y300000D02*
Y294002D01*
X167021D01*
X168021Y295002D01*
Y297001D01*
X167021Y298001D01*
X164022D01*
X159024Y294002D02*
X161023D01*
X162023Y295002D01*
Y297001D01*
X161023Y298001D01*
X159024D01*
X158024Y297001D01*
Y296001D01*
X162023D01*
X146028Y299000D02*
X147028Y300000D01*
X149027D01*
X150027Y299000D01*
Y295002D01*
X149027Y294002D01*
X147028D01*
X146028Y295002D01*
X143029Y298001D02*
X141030D01*
X140030Y297001D01*
Y294002D01*
X143029D01*
X144029Y295002D01*
X143029Y296001D01*
X140030D01*
X134032Y298001D02*
X137031D01*
X138031Y297001D01*
Y295002D01*
X137031Y294002D01*
X134032D01*
X132033Y300000D02*
Y294002D01*
Y297001D01*
X131033Y298001D01*
X129034D01*
X128034Y297001D01*
Y294002D01*
X125035Y298001D02*
X123036D01*
X122036Y297001D01*
Y294002D01*
X125035D01*
X126035Y295002D01*
X125035Y296001D01*
X122036D01*
X120037Y294002D02*
Y298001D01*
X117038D01*
X116038Y297001D01*
Y294002D01*
X229001Y323333D02*
X230001Y324333D01*
X232000D01*
X233000Y323333D01*
Y319334D01*
X232000Y318335D01*
X230001D01*
X229001Y319334D01*
X226002Y322333D02*
X224003D01*
X223003Y321334D01*
Y318335D01*
X226002D01*
X227002Y319334D01*
X226002Y320334D01*
X223003D01*
X221004Y318335D02*
Y322333D01*
X220004D01*
X219005Y321334D01*
Y318335D01*
Y321334D01*
X218005Y322333D01*
X217005Y321334D01*
Y318335D01*
X215006D02*
X213006D01*
X214006D01*
Y322333D01*
X215006D01*
X210007Y318335D02*
X208008D01*
X209008D01*
Y324333D01*
X210007D01*
X205009Y318335D02*
X203010D01*
X204009D01*
Y324333D01*
X205009D01*
X197012Y318335D02*
X199011D01*
X200011Y319334D01*
Y321334D01*
X199011Y322333D01*
X197012D01*
X196012Y321334D01*
Y320334D01*
X200011D01*
X188015Y324333D02*
Y318335D01*
X185016D01*
X184016Y319334D01*
Y323333D01*
X185016Y324333D01*
X188015D01*
X179018Y318335D02*
X181017D01*
X182017Y319334D01*
Y321334D01*
X181017Y322333D01*
X179018D01*
X178018Y321334D01*
Y320334D01*
X182017D01*
X176019Y318335D02*
Y322333D01*
X175019D01*
X174019Y321334D01*
Y318335D01*
Y321334D01*
X173020Y322333D01*
X172020Y321334D01*
Y318335D01*
X169021Y322333D02*
X167022D01*
X166022Y321334D01*
Y318335D01*
X169021D01*
X170021Y319334D01*
X169021Y320334D01*
X166022D01*
X164022Y318335D02*
X161023D01*
X160024Y319334D01*
X161023Y320334D01*
X163023D01*
X164022Y321334D01*
X163023Y322333D01*
X160024D01*
X158024Y318335D02*
X155025D01*
X154026Y319334D01*
X155025Y320334D01*
X157025D01*
X158024Y321334D01*
X157025Y322333D01*
X154026D01*
X151027Y318335D02*
X149027D01*
X148028Y319334D01*
Y321334D01*
X149027Y322333D01*
X151027D01*
X152026Y321334D01*
Y319334D01*
X151027Y318335D01*
X146028D02*
Y322333D01*
X143029D01*
X142030Y321334D01*
Y318335D01*
X233000Y350665D02*
Y346666D01*
X231001Y344667D01*
X229001Y346666D01*
Y350665D01*
X227002Y344667D02*
X225003D01*
X226002D01*
Y348665D01*
X227002D01*
X219005Y344667D02*
X221004D01*
X222004Y345666D01*
Y347666D01*
X221004Y348665D01*
X219005D01*
X218005Y347666D01*
Y346666D01*
X222004D01*
X215006Y349665D02*
Y348665D01*
X216006D01*
X214006D01*
X215006D01*
Y345666D01*
X214006Y344667D01*
X205009D02*
Y350665D01*
X201010Y344667D01*
Y350665D01*
X197012Y342667D02*
X196012D01*
X195012Y343667D01*
Y348665D01*
X198011D01*
X199011Y347666D01*
Y345666D01*
X198011Y344667D01*
X195012D01*
X193013Y348665D02*
Y345666D01*
X192013Y344667D01*
X189014D01*
Y348665D01*
X187015D02*
Y345666D01*
X186015Y344667D01*
X183016D01*
Y343667D01*
X184016Y342667D01*
X185016D01*
X183016Y344667D02*
Y348665D01*
X178018Y344667D02*
X180017D01*
X181017Y345666D01*
Y347666D01*
X180017Y348665D01*
X178018D01*
X177018Y347666D01*
Y346666D01*
X181017D01*
X175019Y344667D02*
Y348665D01*
X172020D01*
X171020Y347666D01*
Y344667D01*
X230001Y372998D02*
X232000D01*
X233000Y371998D01*
Y368000D01*
X232000Y367000D01*
X230001D01*
X229001Y368000D01*
Y371998D01*
X230001Y372998D01*
X227002Y370999D02*
X223003D01*
X227002Y367000D01*
X223003D01*
X220004Y370999D02*
X218005D01*
X217005Y369999D01*
Y367000D01*
X220004D01*
X221004Y368000D01*
X220004Y368999D01*
X217005D01*
X215006Y367000D02*
Y370999D01*
X212007D01*
X211007Y369999D01*
Y367000D01*
X199011Y371998D02*
X200011Y372998D01*
X202010D01*
X203010Y371998D01*
Y368000D01*
X202010Y367000D01*
X200011D01*
X199011Y368000D01*
Y369999D01*
X201010D01*
X196012Y367000D02*
X194013D01*
X193013Y368000D01*
Y369999D01*
X194013Y370999D01*
X196012D01*
X197012Y369999D01*
Y368000D01*
X196012Y367000D01*
X191014D02*
Y372998D01*
Y368999D02*
X188015Y370999D01*
X191014Y368999D02*
X188015Y367000D01*
X181017Y372998D02*
Y367000D01*
X184016D01*
X185016Y368000D01*
Y369999D01*
X184016Y370999D01*
X181017D01*
X176019Y367000D02*
X178018D01*
X179018Y368000D01*
Y369999D01*
X178018Y370999D01*
X176019D01*
X175019Y369999D01*
Y368999D01*
X179018D01*
X173020Y367000D02*
Y370999D01*
X172020D01*
X171020Y369999D01*
Y367000D01*
Y369999D01*
X170020Y370999D01*
X169021Y369999D01*
Y367000D01*
X167021D02*
X165022D01*
X166022D01*
Y370999D01*
X167021D01*
X162023D02*
Y367000D01*
Y368999D01*
X161023Y369999D01*
X160024Y370999D01*
X159024D01*
M02*
