G04 Layer_Physical_Order=4*
G04 Layer_Color=16711680*
%FSLAX44Y44*%
%MOMM*%
G71*
G01*
G75*
%ADD23C,0.2540*%
%ADD24C,1.5240*%
%ADD25C,2.7000*%
%ADD26C,1.2000*%
%ADD27C,1.2700*%
%ADD28C,0.6000*%
D23*
X327000Y350000D02*
X337000Y360000D01*
X327000Y296000D02*
Y350000D01*
Y296000D02*
X419000Y204000D01*
X625000Y58000D02*
Y204000D01*
X616700Y39300D02*
X625000D01*
X612000Y44000D02*
X616700Y39300D01*
X612000Y44000D02*
Y196000D01*
X604000Y204000D02*
X612000Y196000D01*
X625000Y39300D02*
X626000D01*
X614000Y215000D02*
X625000Y204000D01*
X419000D02*
X604000D01*
X471000Y215000D02*
X614000D01*
X545000Y131000D02*
X576000D01*
X286000Y301000D02*
X315000Y330000D01*
Y414000D01*
X286000Y248000D02*
Y301000D01*
X477000Y341000D02*
X553000D01*
X560000Y334000D01*
Y308000D02*
Y334000D01*
X286000Y248000D02*
X293000Y241000D01*
X305000D01*
X473110Y140890D02*
X484000Y130000D01*
X109000Y150000D02*
Y199000D01*
X484000Y150000D02*
X504000Y130000D01*
X109000Y150000D02*
X118110Y140890D01*
X473110D01*
X280000Y150000D02*
X484000D01*
X229000Y201000D02*
X280000Y150000D01*
X362000Y324000D02*
X471000Y215000D01*
X366822Y236178D02*
X446770Y156230D01*
X519770D01*
X545000Y131000D01*
X31000Y79000D02*
X55000Y55000D01*
X56000Y56000D01*
X162000D01*
D24*
X31000Y39000D02*
D03*
Y59000D02*
D03*
Y79000D02*
D03*
X315000Y414000D02*
D03*
X20000Y112000D02*
D03*
X175000Y34000D02*
D03*
X116000D02*
D03*
X349000Y391000D02*
D03*
X369000D02*
D03*
X389000D02*
D03*
X596000D02*
D03*
X536000D02*
D03*
X556000D02*
D03*
X576000D02*
D03*
X444000Y130000D02*
D03*
X484000D02*
D03*
X504000D02*
D03*
X524000D02*
D03*
X464000D02*
D03*
D25*
X275000Y404000D02*
D03*
X475000D02*
D03*
X196550Y177500D02*
D03*
X553450D02*
D03*
D26*
X547000Y277000D02*
D03*
X625000Y58000D02*
D03*
Y39300D02*
D03*
X555000Y91000D02*
D03*
X576000Y131000D02*
D03*
X298000Y331000D02*
D03*
X535000Y225000D02*
D03*
X522000Y264000D02*
D03*
X114000Y101000D02*
D03*
X461000Y361000D02*
D03*
X198000Y58000D02*
D03*
X229000Y201000D02*
D03*
X255000Y101000D02*
D03*
X45000Y287000D02*
D03*
X602000Y346000D02*
D03*
X512500Y165500D02*
D03*
X469000Y285000D02*
D03*
X392000Y192000D02*
D03*
X378000Y286000D02*
D03*
X582000Y270000D02*
D03*
X660000Y275000D02*
D03*
Y296000D02*
D03*
X360000Y169000D02*
D03*
X437000Y86000D02*
D03*
X709100Y133900D02*
D03*
X723000Y90000D02*
D03*
X305000Y241000D02*
D03*
X256000Y269000D02*
D03*
X119000Y287000D02*
D03*
X139000Y176000D02*
D03*
X256500Y153500D02*
D03*
X162000Y287000D02*
D03*
X337000Y360000D02*
D03*
X362000Y324000D02*
D03*
X427000Y214000D02*
D03*
X444000Y225000D02*
D03*
X366822Y236178D02*
D03*
D27*
X477000Y341000D02*
D03*
X560000Y308000D02*
D03*
X109000Y199000D02*
D03*
X162000Y56000D02*
D03*
D28*
X519000Y305500D02*
D03*
X530000Y316500D02*
D03*
Y305500D02*
D03*
X519000Y316500D02*
D03*
M02*
