G04 Layer_Color=8388736*
%FSLAX44Y44*%
%MOMM*%
G71*
G01*
G75*
%ADD35C,1.7272*%
%ADD44R,0.5032X0.8632*%
%ADD45R,1.9032X1.3032*%
%ADD46R,1.3032X1.9032*%
%ADD47O,2.4032X0.8032*%
%ADD48R,2.2900X3.3900*%
%ADD49R,2.2900X1.0900*%
%ADD50R,0.4000X0.9000*%
%ADD51R,2.6032X2.6032*%
%ADD52O,1.0032X0.4032*%
%ADD53O,0.4032X1.0032*%
%ADD54R,2.9972X0.9652*%
G04:AMPARAMS|DCode=55|XSize=0.6mm|YSize=1.6mm|CornerRadius=0mm|HoleSize=0mm|Usage=FLASHONLY|Rotation=225.000|XOffset=0mm|YOffset=0mm|HoleType=Round|Shape=Rectangle|*
%AMROTATEDRECTD55*
4,1,4,-0.3536,0.7778,0.7778,-0.3536,0.3536,-0.7778,-0.7778,0.3536,-0.3536,0.7778,0.0*
%
%ADD55ROTATEDRECTD55*%

G04:AMPARAMS|DCode=56|XSize=0.6mm|YSize=1.6mm|CornerRadius=0mm|HoleSize=0mm|Usage=FLASHONLY|Rotation=315.000|XOffset=0mm|YOffset=0mm|HoleType=Round|Shape=Rectangle|*
%AMROTATEDRECTD56*
4,1,4,-0.7778,-0.3536,0.3536,0.7778,0.7778,0.3536,-0.3536,-0.7778,-0.7778,-0.3536,0.0*
%
%ADD56ROTATEDRECTD56*%

%ADD57C,2.9032*%
%ADD58C,1.4032*%
%ADD59C,1.4732*%
%ADD60C,0.8032*%
D35*
X31000Y39000D02*
D03*
Y59000D02*
D03*
Y79000D02*
D03*
X315000Y414000D02*
D03*
X20000Y112000D02*
D03*
X175000Y34000D02*
D03*
X116000D02*
D03*
X349000Y391000D02*
D03*
X369000D02*
D03*
X389000D02*
D03*
X596000D02*
D03*
X536000D02*
D03*
X556000D02*
D03*
X576000D02*
D03*
X444000Y130000D02*
D03*
X484000D02*
D03*
X504000D02*
D03*
X524000D02*
D03*
X464000D02*
D03*
D44*
X704500Y288250D02*
D03*
X711000D02*
D03*
X717500D02*
D03*
Y269750D02*
D03*
X711000D02*
D03*
X704500D02*
D03*
X32500Y270250D02*
D03*
X39000D02*
D03*
X45500D02*
D03*
Y251750D02*
D03*
X39000D02*
D03*
X32500D02*
D03*
D45*
X659667Y252500D02*
D03*
Y225500D02*
D03*
X613000Y132500D02*
D03*
Y159500D02*
D03*
X120000Y176500D02*
D03*
Y149500D02*
D03*
X91000Y176500D02*
D03*
Y149500D02*
D03*
X142000Y257500D02*
D03*
Y230500D02*
D03*
X634000Y301500D02*
D03*
Y274500D02*
D03*
X685333Y225500D02*
D03*
Y252500D02*
D03*
X711000Y225500D02*
D03*
Y252500D02*
D03*
X33000Y149500D02*
D03*
Y176500D02*
D03*
X62000D02*
D03*
Y149500D02*
D03*
X235000Y287000D02*
D03*
Y314000D02*
D03*
X277000Y151500D02*
D03*
Y124500D02*
D03*
X338000Y169000D02*
D03*
Y196000D02*
D03*
X465333Y252500D02*
D03*
Y225500D02*
D03*
X414000Y165500D02*
D03*
Y192500D02*
D03*
X439667Y165500D02*
D03*
Y192500D02*
D03*
X465333Y165500D02*
D03*
Y192500D02*
D03*
X491000Y165500D02*
D03*
Y192500D02*
D03*
X557000Y225500D02*
D03*
Y252500D02*
D03*
X634000Y225500D02*
D03*
Y252500D02*
D03*
X608333Y225500D02*
D03*
Y252500D02*
D03*
X582667D02*
D03*
Y225500D02*
D03*
X491000Y252500D02*
D03*
Y225500D02*
D03*
X726000Y66500D02*
D03*
Y39500D02*
D03*
X578000Y90500D02*
D03*
Y63500D02*
D03*
X606000Y90500D02*
D03*
Y63500D02*
D03*
D46*
X687500Y194000D02*
D03*
X660500D02*
D03*
X208000Y287000D02*
D03*
X181000D02*
D03*
X255500Y78000D02*
D03*
X228500D02*
D03*
X255500Y124000D02*
D03*
X228500D02*
D03*
X208000Y317000D02*
D03*
X181000D02*
D03*
X100500Y287000D02*
D03*
X73500D02*
D03*
X162500Y199000D02*
D03*
X135500D02*
D03*
X256500Y252000D02*
D03*
X283500D02*
D03*
Y199000D02*
D03*
X256500D02*
D03*
X283500Y224000D02*
D03*
X256500D02*
D03*
X283500Y174000D02*
D03*
X256500D02*
D03*
X517000Y361000D02*
D03*
X490000D02*
D03*
X586500Y346000D02*
D03*
X559500D02*
D03*
D47*
X687000Y133950D02*
D03*
Y146650D02*
D03*
Y159350D02*
D03*
Y172050D02*
D03*
X639000Y133950D02*
D03*
Y146650D02*
D03*
Y159350D02*
D03*
Y172050D02*
D03*
X71000Y255850D02*
D03*
Y243150D02*
D03*
Y230450D02*
D03*
Y217750D02*
D03*
X119000Y255850D02*
D03*
Y243150D02*
D03*
Y230450D02*
D03*
Y217750D02*
D03*
X219000Y217950D02*
D03*
Y230650D02*
D03*
Y243350D02*
D03*
Y256050D02*
D03*
X171000Y217950D02*
D03*
Y230650D02*
D03*
Y243350D02*
D03*
Y256050D02*
D03*
D48*
X140000Y101000D02*
D03*
D49*
X198000Y124000D02*
D03*
Y101000D02*
D03*
Y78000D02*
D03*
D50*
X299500Y124500D02*
D03*
X304500D02*
D03*
X309500D02*
D03*
X314500D02*
D03*
X299500Y155500D02*
D03*
X304500D02*
D03*
X309500D02*
D03*
X314500D02*
D03*
D51*
X524500Y311000D02*
D03*
D52*
X544500Y323500D02*
D03*
Y318500D02*
D03*
Y313500D02*
D03*
Y308500D02*
D03*
Y303500D02*
D03*
Y298500D02*
D03*
X504500D02*
D03*
Y303500D02*
D03*
Y308500D02*
D03*
Y313500D02*
D03*
Y318500D02*
D03*
Y323500D02*
D03*
D53*
X537000Y291000D02*
D03*
X532000D02*
D03*
X527000D02*
D03*
X522000D02*
D03*
X517000D02*
D03*
X512000D02*
D03*
Y331000D02*
D03*
X517000D02*
D03*
X522000D02*
D03*
X527000D02*
D03*
X532000D02*
D03*
X537000D02*
D03*
D54*
X654000Y90100D02*
D03*
X692100D02*
D03*
X654000Y77400D02*
D03*
X692100D02*
D03*
X654000Y64700D02*
D03*
X692100D02*
D03*
X654000Y52000D02*
D03*
X692100D02*
D03*
X654000Y39300D02*
D03*
X692100D02*
D03*
D55*
X437284Y271284D02*
D03*
X431627Y265627D02*
D03*
X425971Y259971D02*
D03*
X420314Y254314D02*
D03*
X414657Y248657D02*
D03*
X409000Y243000D02*
D03*
X403343Y237343D02*
D03*
X397686Y231686D02*
D03*
X392029Y226029D02*
D03*
X386372Y220373D02*
D03*
X380716Y214716D02*
D03*
X300105Y295326D02*
D03*
X305762Y300983D02*
D03*
X311419Y306640D02*
D03*
X317076Y312297D02*
D03*
X322733Y317953D02*
D03*
X328390Y323610D02*
D03*
X334047Y329267D02*
D03*
X339703Y334924D02*
D03*
X345360Y340581D02*
D03*
X351017Y346238D02*
D03*
X356674Y351894D02*
D03*
D56*
X356674Y214716D02*
D03*
X351017Y220373D02*
D03*
X345360Y226029D02*
D03*
X339703Y231686D02*
D03*
X334047Y237343D02*
D03*
X328390Y243000D02*
D03*
X322733Y248657D02*
D03*
X317076Y254314D02*
D03*
X311419Y259970D02*
D03*
X305762Y265627D02*
D03*
X300105Y271284D02*
D03*
X380716Y351895D02*
D03*
X386372Y346238D02*
D03*
X392029Y340581D02*
D03*
X397686Y334924D02*
D03*
X403343Y329267D02*
D03*
X409000Y323610D02*
D03*
X414657Y317953D02*
D03*
X420314Y312297D02*
D03*
X425970Y306640D02*
D03*
X431628Y300983D02*
D03*
X437284Y295326D02*
D03*
D57*
X275000Y404000D02*
D03*
X475000D02*
D03*
X196550Y177500D02*
D03*
X553450D02*
D03*
D58*
X547000Y277000D02*
D03*
X625000Y58000D02*
D03*
Y39300D02*
D03*
X555000Y91000D02*
D03*
X576000Y131000D02*
D03*
X298000Y331000D02*
D03*
X535000Y225000D02*
D03*
X522000Y264000D02*
D03*
X114000Y101000D02*
D03*
X461000Y361000D02*
D03*
X198000Y58000D02*
D03*
X229000Y201000D02*
D03*
X255000Y101000D02*
D03*
X45000Y287000D02*
D03*
X602000Y346000D02*
D03*
X512500Y165500D02*
D03*
X469000Y285000D02*
D03*
X392000Y192000D02*
D03*
X378000Y286000D02*
D03*
X582000Y270000D02*
D03*
X660000Y275000D02*
D03*
Y296000D02*
D03*
X360000Y169000D02*
D03*
X437000Y86000D02*
D03*
X709100Y133900D02*
D03*
X723000Y90000D02*
D03*
X305000Y241000D02*
D03*
X256000Y269000D02*
D03*
X119000Y287000D02*
D03*
X139000Y176000D02*
D03*
X256500Y153500D02*
D03*
X162000Y287000D02*
D03*
X337000Y360000D02*
D03*
X362000Y324000D02*
D03*
X427000Y214000D02*
D03*
X444000Y225000D02*
D03*
X366822Y236178D02*
D03*
D59*
X477000Y341000D02*
D03*
X560000Y308000D02*
D03*
X109000Y199000D02*
D03*
X162000Y56000D02*
D03*
D60*
X519000Y305500D02*
D03*
X530000Y316500D02*
D03*
Y305500D02*
D03*
X519000Y316500D02*
D03*
M02*
