G04 Layer_Color=8421504*
%FSLAX44Y44*%
%MOMM*%
G71*
G01*
G75*
%ADD10R,0.3000X0.6600*%
%ADD11R,1.7000X1.1000*%
%ADD12R,1.1000X1.7000*%
%ADD13O,2.2000X0.6000*%
%ADD14R,2.1500X3.2500*%
%ADD15R,2.1500X0.9500*%
%ADD16R,0.3000X0.8000*%
%ADD17R,2.4000X2.4000*%
%ADD18O,0.8000X0.2000*%
%ADD19O,0.2000X0.8000*%
%ADD20R,2.7940X0.7620*%
G04:AMPARAMS|DCode=21|XSize=0.4mm|YSize=1.4mm|CornerRadius=0mm|HoleSize=0mm|Usage=FLASHONLY|Rotation=225.000|XOffset=0mm|YOffset=0mm|HoleType=Round|Shape=Rectangle|*
%AMROTATEDRECTD21*
4,1,4,-0.3536,0.6364,0.6364,-0.3536,0.3536,-0.6364,-0.6364,0.3536,-0.3536,0.6364,0.0*
%
%ADD21ROTATEDRECTD21*%

G04:AMPARAMS|DCode=22|XSize=0.4mm|YSize=1.4mm|CornerRadius=0mm|HoleSize=0mm|Usage=FLASHONLY|Rotation=315.000|XOffset=0mm|YOffset=0mm|HoleType=Round|Shape=Rectangle|*
%AMROTATEDRECTD22*
4,1,4,-0.6364,-0.3536,0.3536,0.6364,0.6364,0.3536,-0.3536,-0.6364,-0.6364,-0.3536,0.0*
%
%ADD22ROTATEDRECTD22*%

D10*
X704500Y288250D02*
D03*
X711000D02*
D03*
X717500D02*
D03*
Y269750D02*
D03*
X711000D02*
D03*
X704500D02*
D03*
X32500Y270250D02*
D03*
X39000D02*
D03*
X45500D02*
D03*
Y251750D02*
D03*
X39000D02*
D03*
X32500D02*
D03*
D11*
X659667Y252500D02*
D03*
Y225500D02*
D03*
X613000Y132500D02*
D03*
Y159500D02*
D03*
X120000Y176500D02*
D03*
Y149500D02*
D03*
X91000Y176500D02*
D03*
Y149500D02*
D03*
X142000Y257500D02*
D03*
Y230500D02*
D03*
X634000Y301500D02*
D03*
Y274500D02*
D03*
X685333Y225500D02*
D03*
Y252500D02*
D03*
X711000Y225500D02*
D03*
Y252500D02*
D03*
X33000Y149500D02*
D03*
Y176500D02*
D03*
X62000D02*
D03*
Y149500D02*
D03*
X235000Y287000D02*
D03*
Y314000D02*
D03*
X277000Y151500D02*
D03*
Y124500D02*
D03*
X338000Y169000D02*
D03*
Y196000D02*
D03*
X465333Y252500D02*
D03*
Y225500D02*
D03*
X414000Y165500D02*
D03*
Y192500D02*
D03*
X439667Y165500D02*
D03*
Y192500D02*
D03*
X465333Y165500D02*
D03*
Y192500D02*
D03*
X491000Y165500D02*
D03*
Y192500D02*
D03*
X557000Y225500D02*
D03*
Y252500D02*
D03*
X634000Y225500D02*
D03*
Y252500D02*
D03*
X608333Y225500D02*
D03*
Y252500D02*
D03*
X582667D02*
D03*
Y225500D02*
D03*
X491000Y252500D02*
D03*
Y225500D02*
D03*
X726000Y66500D02*
D03*
Y39500D02*
D03*
X578000Y90500D02*
D03*
Y63500D02*
D03*
X606000Y90500D02*
D03*
Y63500D02*
D03*
D12*
X687500Y194000D02*
D03*
X660500D02*
D03*
X208000Y287000D02*
D03*
X181000D02*
D03*
X255500Y78000D02*
D03*
X228500D02*
D03*
X255500Y124000D02*
D03*
X228500D02*
D03*
X208000Y317000D02*
D03*
X181000D02*
D03*
X100500Y287000D02*
D03*
X73500D02*
D03*
X162500Y199000D02*
D03*
X135500D02*
D03*
X256500Y252000D02*
D03*
X283500D02*
D03*
Y199000D02*
D03*
X256500D02*
D03*
X283500Y224000D02*
D03*
X256500D02*
D03*
X283500Y174000D02*
D03*
X256500D02*
D03*
X517000Y361000D02*
D03*
X490000D02*
D03*
X586500Y346000D02*
D03*
X559500D02*
D03*
D13*
X687000Y133950D02*
D03*
Y146650D02*
D03*
Y159350D02*
D03*
Y172050D02*
D03*
X639000Y133950D02*
D03*
Y146650D02*
D03*
Y159350D02*
D03*
Y172050D02*
D03*
X71000Y255850D02*
D03*
Y243150D02*
D03*
Y230450D02*
D03*
Y217750D02*
D03*
X119000Y255850D02*
D03*
Y243150D02*
D03*
Y230450D02*
D03*
Y217750D02*
D03*
X219000Y217950D02*
D03*
Y230650D02*
D03*
Y243350D02*
D03*
Y256050D02*
D03*
X171000Y217950D02*
D03*
Y230650D02*
D03*
Y243350D02*
D03*
Y256050D02*
D03*
D14*
X140000Y101000D02*
D03*
D15*
X198000Y124000D02*
D03*
Y101000D02*
D03*
Y78000D02*
D03*
D16*
X299500Y124500D02*
D03*
X304500D02*
D03*
X309500D02*
D03*
X314500D02*
D03*
X299500Y155500D02*
D03*
X304500D02*
D03*
X309500D02*
D03*
X314500D02*
D03*
D17*
X524500Y311000D02*
D03*
D18*
X544500Y323500D02*
D03*
Y318500D02*
D03*
Y313500D02*
D03*
Y308500D02*
D03*
Y303500D02*
D03*
Y298500D02*
D03*
X504500D02*
D03*
Y303500D02*
D03*
Y308500D02*
D03*
Y313500D02*
D03*
Y318500D02*
D03*
Y323500D02*
D03*
D19*
X537000Y291000D02*
D03*
X532000D02*
D03*
X527000D02*
D03*
X522000D02*
D03*
X517000D02*
D03*
X512000D02*
D03*
Y331000D02*
D03*
X517000D02*
D03*
X522000D02*
D03*
X527000D02*
D03*
X532000D02*
D03*
X537000D02*
D03*
D20*
X654000Y90100D02*
D03*
X692100D02*
D03*
X654000Y77400D02*
D03*
X692100D02*
D03*
X654000Y64700D02*
D03*
X692100D02*
D03*
X654000Y52000D02*
D03*
X692100D02*
D03*
X654000Y39300D02*
D03*
X692100D02*
D03*
D21*
X437284Y271284D02*
D03*
X431627Y265627D02*
D03*
X425971Y259971D02*
D03*
X420314Y254314D02*
D03*
X414657Y248657D02*
D03*
X409000Y243000D02*
D03*
X403343Y237343D02*
D03*
X397686Y231686D02*
D03*
X392029Y226029D02*
D03*
X386372Y220373D02*
D03*
X380716Y214716D02*
D03*
X300105Y295326D02*
D03*
X305762Y300983D02*
D03*
X311419Y306640D02*
D03*
X317076Y312297D02*
D03*
X322733Y317953D02*
D03*
X328390Y323610D02*
D03*
X334047Y329267D02*
D03*
X339703Y334924D02*
D03*
X345360Y340581D02*
D03*
X351017Y346238D02*
D03*
X356674Y351894D02*
D03*
D22*
X356674Y214716D02*
D03*
X351017Y220373D02*
D03*
X345360Y226029D02*
D03*
X339703Y231686D02*
D03*
X334047Y237343D02*
D03*
X328390Y243000D02*
D03*
X322733Y248657D02*
D03*
X317076Y254314D02*
D03*
X311419Y259970D02*
D03*
X305762Y265627D02*
D03*
X300105Y271284D02*
D03*
X380716Y351895D02*
D03*
X386372Y346238D02*
D03*
X392029Y340581D02*
D03*
X397686Y334924D02*
D03*
X403343Y329267D02*
D03*
X409000Y323610D02*
D03*
X414657Y317953D02*
D03*
X420314Y312297D02*
D03*
X425970Y306640D02*
D03*
X431628Y300983D02*
D03*
X437284Y295326D02*
D03*
M02*
