G04 Layer_Color=16711935*
%FSLAX44Y44*%
%MOMM*%
G71*
G01*
G75*
%ADD40C,0.1000*%
D40*
X657000Y169000D02*
G03*
X657000Y169000I-5000J0D01*
G01*
X111000Y220800D02*
G03*
X111000Y220800I-5000J0D01*
G01*
X211000Y221000D02*
G03*
X211000Y221000I-5000J0D01*
G01*
X541250Y322750D02*
G03*
X541250Y322750I-5000J0D01*
G01*
X721000Y272750D02*
Y285250D01*
X701000Y272750D02*
Y285250D01*
X721000D01*
X701000Y272750D02*
X721000D01*
X49000Y254750D02*
Y267250D01*
X29000Y254750D02*
Y267250D01*
X49000D01*
X29000Y254750D02*
X49000D01*
X668667Y222000D02*
Y256000D01*
X650667Y222000D02*
Y256000D01*
X668667D01*
X650667Y222000D02*
X668667D01*
X657000Y185000D02*
X691000D01*
X657000Y203000D02*
X691000D01*
Y185000D02*
Y203000D01*
X657000Y185000D02*
Y203000D01*
X604000Y129000D02*
Y163000D01*
X622000Y129000D02*
Y163000D01*
X604000Y129000D02*
X622000D01*
X604000Y163000D02*
X622000D01*
X129000Y146000D02*
Y180000D01*
X111000Y146000D02*
Y180000D01*
X129000D01*
X111000Y146000D02*
X129000D01*
X100000D02*
Y180000D01*
X82000Y146000D02*
Y180000D01*
X100000D01*
X82000Y146000D02*
X100000D01*
X151000Y227000D02*
Y261000D01*
X133000Y227000D02*
Y261000D01*
X151000D01*
X133000Y227000D02*
X151000D01*
X177500Y278000D02*
X211500D01*
X177500Y296000D02*
X211500D01*
Y278000D02*
Y296000D01*
X177500Y278000D02*
Y296000D01*
X225000Y69000D02*
X259000D01*
X225000Y87000D02*
X259000D01*
Y69000D02*
Y87000D01*
X225000Y69000D02*
Y87000D01*
Y115000D02*
X259000D01*
X225000Y133000D02*
X259000D01*
Y115000D02*
Y133000D01*
X225000Y115000D02*
Y133000D01*
X643000Y271000D02*
Y305000D01*
X625000Y271000D02*
Y305000D01*
X643000D01*
X625000Y271000D02*
X643000D01*
X676333Y222000D02*
Y256000D01*
X694333Y222000D02*
Y256000D01*
X676333Y222000D02*
X694333D01*
X676333Y256000D02*
X694333D01*
X702000Y222000D02*
Y256000D01*
X720000Y222000D02*
Y256000D01*
X702000Y222000D02*
X720000D01*
X702000Y256000D02*
X720000D01*
X24000Y146000D02*
Y180000D01*
X42000Y146000D02*
Y180000D01*
X24000Y146000D02*
X42000D01*
X24000Y180000D02*
X42000D01*
X71000Y146000D02*
Y180000D01*
X53000Y146000D02*
Y180000D01*
X71000D01*
X53000Y146000D02*
X71000D01*
X177500Y308000D02*
X211500D01*
X177500Y326000D02*
X211500D01*
Y308000D02*
Y326000D01*
X177500Y308000D02*
Y326000D01*
X226000Y283500D02*
Y317500D01*
X244000Y283500D02*
Y317500D01*
X226000Y283500D02*
X244000D01*
X226000Y317500D02*
X244000D01*
X70000Y278000D02*
X104000D01*
X70000Y296000D02*
X104000D01*
Y278000D02*
Y296000D01*
X70000Y278000D02*
Y296000D01*
X132000Y190000D02*
X166000D01*
X132000Y208000D02*
X166000D01*
Y190000D02*
Y208000D01*
X132000Y190000D02*
Y208000D01*
X643000Y128000D02*
X683000D01*
X643000Y178000D02*
X683000D01*
Y128000D02*
Y178000D01*
X643000Y128000D02*
Y178000D01*
X75000Y261800D02*
X115000D01*
X75000Y211800D02*
X115000D01*
X75000D02*
Y261800D01*
X115000Y211800D02*
Y261800D01*
X215000Y212000D02*
Y262000D01*
X175000Y212000D02*
Y262000D01*
Y212000D02*
X215000D01*
X175000Y262000D02*
X215000D01*
X286000Y121000D02*
Y155000D01*
X268000Y121000D02*
Y155000D01*
X286000D01*
X268000Y121000D02*
X286000D01*
X253000Y243000D02*
Y261000D01*
X287000Y243000D02*
Y261000D01*
X253000D02*
X287000D01*
X253000Y243000D02*
X287000D01*
X296500Y128000D02*
X317500D01*
X296500Y152000D02*
X317500D01*
X296500Y128000D02*
Y152000D01*
X317500Y128000D02*
Y152000D01*
X287000Y190000D02*
Y208000D01*
X253000Y190000D02*
Y208000D01*
Y190000D02*
X287000D01*
X253000Y208000D02*
X287000D01*
Y215000D02*
Y233000D01*
X253000Y215000D02*
Y233000D01*
Y215000D02*
X287000D01*
X253000Y233000D02*
X287000D01*
Y165000D02*
Y183000D01*
X253000Y165000D02*
Y183000D01*
Y165000D02*
X287000D01*
X253000Y183000D02*
X287000D01*
X329000Y165500D02*
X347000D01*
X329000Y199500D02*
X347000D01*
X329000Y165500D02*
Y199500D01*
X347000Y165500D02*
Y199500D01*
X456333Y256000D02*
X474333D01*
X456333Y222000D02*
X474333D01*
Y256000D01*
X456333Y222000D02*
Y256000D01*
X405000Y162000D02*
X423000D01*
X405000Y196000D02*
X423000D01*
X405000Y162000D02*
Y196000D01*
X423000Y162000D02*
Y196000D01*
X430667Y162000D02*
X448667D01*
X430667Y196000D02*
X448667D01*
X430667Y162000D02*
Y196000D01*
X448667Y162000D02*
Y196000D01*
X456333Y162000D02*
X474333D01*
X456333Y196000D02*
X474333D01*
X456333Y162000D02*
Y196000D01*
X474333Y162000D02*
Y196000D01*
X482000Y162000D02*
X500000D01*
X482000Y196000D02*
X500000D01*
X482000Y162000D02*
Y196000D01*
X500000Y162000D02*
Y196000D01*
X520500Y352000D02*
Y370000D01*
X486500Y352000D02*
Y370000D01*
Y352000D02*
X520500D01*
X486500Y370000D02*
X520500D01*
X548000Y222000D02*
X566000D01*
X548000Y256000D02*
X566000D01*
X548000Y222000D02*
Y256000D01*
X566000Y222000D02*
Y256000D01*
X590000Y337000D02*
Y355000D01*
X556000Y337000D02*
Y355000D01*
Y337000D02*
X590000D01*
X556000Y355000D02*
X590000D01*
X503750Y290250D02*
Y331750D01*
X545250Y290250D02*
Y331750D01*
X503750Y290250D02*
X545250D01*
X503750Y331750D02*
X545250D01*
X625000Y222000D02*
X643000D01*
X625000Y256000D02*
X643000D01*
X625000Y222000D02*
Y256000D01*
X643000Y222000D02*
Y256000D01*
X599333Y222000D02*
X617333D01*
X599333Y256000D02*
X617333D01*
X599333Y222000D02*
Y256000D01*
X617333Y222000D02*
Y256000D01*
X573667D02*
X591667D01*
X573667Y222000D02*
X591667D01*
Y256000D01*
X573667Y222000D02*
Y256000D01*
X482000D02*
X500000D01*
X482000Y222000D02*
X500000D01*
Y256000D01*
X482000Y222000D02*
Y256000D01*
X717000Y70000D02*
X735000D01*
X717000Y36000D02*
X735000D01*
Y70000D01*
X717000Y36000D02*
Y70000D01*
X569000Y94000D02*
X587000D01*
X569000Y60000D02*
X587000D01*
Y94000D01*
X569000Y60000D02*
Y94000D01*
X597000D02*
X615000D01*
X597000Y60000D02*
X615000D01*
Y94000D01*
X597000Y60000D02*
Y94000D01*
M02*
