G04 Layer_Physical_Order=3*
G04 Layer_Color=128*
%FSLAX44Y44*%
%MOMM*%
G71*
G01*
G75*
%ADD23C,0.2540*%
%ADD29C,1.0160*%
%ADD30C,1.7780*%
G04:AMPARAMS|DCode=31|XSize=2.286mm|YSize=2.286mm|CornerRadius=0mm|HoleSize=0mm|Usage=FLASHONLY|Rotation=0.000|XOffset=0mm|YOffset=0mm|HoleType=Round|Shape=Relief|Width=0.254mm|Gap=0.254mm|Entries=4|*
%AMTHD31*
7,0,0,2.2860,1.7780,0.2540,45*
%
%ADD31THD31*%
%ADD32C,3.7160*%
G04:AMPARAMS|DCode=33|XSize=2.124mm|YSize=2.124mm|CornerRadius=0mm|HoleSize=0mm|Usage=FLASHONLY|Rotation=0.000|XOffset=0mm|YOffset=0mm|HoleType=Round|Shape=Relief|Width=0.254mm|Gap=0.254mm|Entries=4|*
%AMTHD33*
7,0,0,2.1240,1.6160,0.2540,45*
%
%ADD33THD33*%
%ADD34C,1.6160*%
%ADD35C,1.7272*%
D23*
X451295Y64916D02*
Y429916D01*
D29*
X9095Y-896D02*
G03*
X10000Y-1274I905J896D01*
G01*
X184466D02*
G03*
X186226Y-1246I865J935D01*
G01*
X563774D02*
G03*
X186226Y-1246I-188774J-191254D01*
G01*
X563774D02*
G03*
X565534Y-1274I895J907D01*
G01*
X740000D02*
G03*
X740905Y-896I0J1274D01*
G01*
X750896Y9095D02*
G03*
X751274Y10000I-896J905D01*
G01*
Y295000D02*
G03*
X750896Y295905I-1274J0D01*
G01*
X740905Y305896D02*
G03*
X740000Y306274I-905J-896D01*
G01*
X631274Y374992D02*
G03*
X700000Y306274I68726J8D01*
G01*
X631274Y374992D02*
G03*
X631274Y375000I-1274J8D01*
G01*
Y420000D02*
G03*
X630896Y420905I-1274J0D01*
G01*
X620905Y430896D02*
G03*
X620000Y431274I-905J-896D01*
G01*
X130000D02*
G03*
X129095Y430896I0J-1274D01*
G01*
X119104Y420905D02*
G03*
X118726Y420000I896J-905D01*
G01*
X118726Y374992D02*
G03*
X118726Y375000I-68726J8D01*
G01*
X50000Y306274D02*
G03*
X118726Y374992I0J68726D01*
G01*
X10000Y306274D02*
G03*
X9095Y305896I0J-1274D01*
G01*
X-896Y295905D02*
G03*
X-1274Y295000I896J-905D01*
G01*
Y10000D02*
G03*
X-896Y9095I1274J0D01*
G01*
X9099Y-901D01*
X9095Y-896D02*
X9099Y-901D01*
X10000Y-1274D02*
X184466D01*
X565534D02*
X740000D01*
X740901Y-901D02*
X740905Y-896D01*
X740901Y-901D02*
X750901Y9099D01*
X750896Y9095D02*
X750901Y9099D01*
X751274Y10000D02*
Y295000D01*
X750896Y295905D02*
X750901Y295901D01*
X740901Y305901D02*
X750901Y295901D01*
X740901Y305901D02*
X740905Y305896D01*
X700000Y306274D02*
X740000D01*
X631274Y375000D02*
Y420000D01*
X630896Y420905D02*
X630901Y420901D01*
X620901Y430901D02*
X630901Y420901D01*
X620901Y430901D02*
X620905Y430896D01*
X130000Y431274D02*
X620000D01*
X129095Y430896D02*
X129099Y430901D01*
X119099Y420901D02*
X129099Y430901D01*
X119099Y420901D02*
X119104Y420905D01*
X118726Y375000D02*
Y420000D01*
Y375000D02*
X118726Y375000D01*
X10000Y306274D02*
X50000D01*
X9095Y305896D02*
X9099Y305901D01*
X-901Y295901D02*
X9099Y305901D01*
X-901Y295901D02*
X-896Y295905D01*
X-1274Y10000D02*
Y295000D01*
D30*
X31000Y59000D02*
D03*
Y79000D02*
D03*
X315000Y414000D02*
D03*
X20000Y112000D02*
D03*
X175000Y34000D02*
D03*
X116000D02*
D03*
X349000Y391000D02*
D03*
X369000D02*
D03*
X596000D02*
D03*
X536000D02*
D03*
X556000D02*
D03*
X576000D02*
D03*
X444000Y130000D02*
D03*
X484000D02*
D03*
X504000D02*
D03*
X524000D02*
D03*
X464000D02*
D03*
D31*
X31000Y39000D02*
D03*
X389000Y391000D02*
D03*
D32*
X275000Y404000D02*
D03*
X475000D02*
D03*
X196550Y177500D02*
D03*
X553450D02*
D03*
D33*
X298000Y331000D02*
D03*
X522000Y264000D02*
D03*
X198000Y58000D02*
D03*
X45000Y287000D02*
D03*
X469000Y285000D02*
D03*
X392000Y192000D02*
D03*
X582000Y270000D02*
D03*
X660000Y296000D02*
D03*
X437000Y86000D02*
D03*
X256500Y153500D02*
D03*
X427000Y214000D02*
D03*
D34*
X547000Y277000D02*
D03*
X625000Y58000D02*
D03*
Y39300D02*
D03*
X555000Y91000D02*
D03*
X576000Y131000D02*
D03*
X519000Y305500D02*
D03*
X530000Y316500D02*
D03*
Y305500D02*
D03*
X519000Y316500D02*
D03*
X535000Y225000D02*
D03*
X114000Y101000D02*
D03*
X461000Y361000D02*
D03*
X229000Y201000D02*
D03*
X255000Y101000D02*
D03*
X602000Y346000D02*
D03*
X512500Y165500D02*
D03*
X378000Y286000D02*
D03*
X660000Y275000D02*
D03*
X360000Y169000D02*
D03*
X709100Y133900D02*
D03*
X723000Y90000D02*
D03*
X305000Y241000D02*
D03*
X256000Y269000D02*
D03*
X119000Y287000D02*
D03*
X139000Y176000D02*
D03*
X162000Y287000D02*
D03*
X337000Y360000D02*
D03*
X362000Y324000D02*
D03*
X444000Y225000D02*
D03*
X366822Y236178D02*
D03*
D35*
X477000Y341000D02*
D03*
X560000Y308000D02*
D03*
X109000Y199000D02*
D03*
X162000Y56000D02*
D03*
M02*
