M48
;Layer_Color=9474304
;FILE_FORMAT=4:4
METRIC,LZ
;TYPE=PLATED
T1F00S00C0.6000
T2F00S00C0.7112
T3F00S00C0.7620
;TYPE=NON_PLATED
T4F00S00C2.7000
%
T01
X00723Y0009
X007091Y001339
X00576Y00131
X00555Y00091
X00625Y00058
Y000393
X00437Y00086
X00255Y00101
X00198Y00058
X00114Y00101
X00139Y00176
X00229Y00201
X002565Y001535
X00256Y00269
X00162Y00287
X00119
X00045
X00298Y00331
X00337Y0036
X00362Y00324
X00378Y00286
X00366822Y00236178
X00305Y00241
X0036Y00169
X00392Y00192
X00427Y00214
X00444Y00225
X00469Y00285
X00519Y003055
X0053
Y003165
X00519
X00522Y00264
X00547Y00277
X00582Y0027
X0066Y00275
Y00296
X00602Y00346
X00461Y00361
X00535Y00225
X005125Y001655
T02
X00162Y00056
X00109Y00199
X00477Y00341
X0056Y00308
T03
X00444Y0013
X00464
X00484
X00504
X00524
X00175Y00034
X00116
X00031Y00039
Y00059
Y00079
X0002Y00112
X00315Y00414
X00349Y00391
X00369
X00389
X00536
X00556
X00576
X00596
T04
X0019655Y001775
X00275Y00404
X00475
X0055345Y001775
M30
