G04 Layer_Color=16711935*
%FSLAX44Y44*%
%MOMM*%
G71*
G01*
G75*
%ADD35C,1.7272*%
%ADD57C,2.9032*%
%ADD58C,1.4032*%
%ADD59C,1.4732*%
%ADD60C,0.8032*%
D35*
X31000Y39000D02*
D03*
Y59000D02*
D03*
Y79000D02*
D03*
X315000Y414000D02*
D03*
X20000Y112000D02*
D03*
X175000Y34000D02*
D03*
X116000D02*
D03*
X349000Y391000D02*
D03*
X369000D02*
D03*
X389000D02*
D03*
X596000D02*
D03*
X536000D02*
D03*
X556000D02*
D03*
X576000D02*
D03*
X444000Y130000D02*
D03*
X484000D02*
D03*
X504000D02*
D03*
X524000D02*
D03*
X464000D02*
D03*
D57*
X275000Y404000D02*
D03*
X475000D02*
D03*
X196550Y177500D02*
D03*
X553450D02*
D03*
D58*
X547000Y277000D02*
D03*
X625000Y58000D02*
D03*
Y39300D02*
D03*
X555000Y91000D02*
D03*
X576000Y131000D02*
D03*
X298000Y331000D02*
D03*
X535000Y225000D02*
D03*
X522000Y264000D02*
D03*
X114000Y101000D02*
D03*
X461000Y361000D02*
D03*
X198000Y58000D02*
D03*
X229000Y201000D02*
D03*
X255000Y101000D02*
D03*
X45000Y287000D02*
D03*
X602000Y346000D02*
D03*
X512500Y165500D02*
D03*
X469000Y285000D02*
D03*
X392000Y192000D02*
D03*
X378000Y286000D02*
D03*
X582000Y270000D02*
D03*
X660000Y275000D02*
D03*
Y296000D02*
D03*
X360000Y169000D02*
D03*
X437000Y86000D02*
D03*
X709100Y133900D02*
D03*
X723000Y90000D02*
D03*
X305000Y241000D02*
D03*
X256000Y269000D02*
D03*
X119000Y287000D02*
D03*
X139000Y176000D02*
D03*
X256500Y153500D02*
D03*
X162000Y287000D02*
D03*
X337000Y360000D02*
D03*
X362000Y324000D02*
D03*
X427000Y214000D02*
D03*
X444000Y225000D02*
D03*
X366822Y236178D02*
D03*
D59*
X477000Y341000D02*
D03*
X560000Y308000D02*
D03*
X109000Y199000D02*
D03*
X162000Y56000D02*
D03*
D60*
X519000Y305500D02*
D03*
X530000Y316500D02*
D03*
Y305500D02*
D03*
X519000Y316500D02*
D03*
M02*
